<svg width="60" height="60" viewBox="0 0 60 60" fill="none" xmlns="http://www.w3.org/2000/svg">
<g clip-path="url(#clip0_761_1717)">
<path fill-rule="evenodd" clip-rule="evenodd" d="M17.1 14.3C16.1611 14.3 15.4 15.0835 15.4 16.05V26.55C15.4 30.416 18.4445 33.55 22.2 33.55C25.9555 33.55 29 30.416 29 26.55V16.05C29 15.0835 28.2389 14.3 27.3 14.3H23.9V10.8H27.3C30.1167 10.8 32.4 13.1505 32.4 16.05V26.55C32.4 31.7527 28.7241 36.0717 23.9 36.9048V47.55C23.9 48.5165 24.6611 49.3 25.6 49.3C26.5389 49.3 27.3 48.5165 27.3 47.55V44.925C27.3 40.5758 30.725 37.05 34.95 37.05H39.4142C40.1691 34.0309 42.8315 31.8 46 31.8C49.7555 31.8 52.8 34.934 52.8 38.8C52.8 42.666 49.7555 45.8 46 45.8C42.8315 45.8 40.1691 43.5691 39.4142 40.55H34.95C32.6028 40.55 30.7 42.5088 30.7 44.925V47.55C30.7 50.4495 28.4167 52.8 25.6 52.8C22.7833 52.8 20.5 50.4495 20.5 47.55V36.9048C15.6759 36.0717 12 31.7527 12 26.55V16.05C12 13.1505 14.2833 10.8 17.1 10.8H20.5V14.3H17.1ZM46 42.3C47.8778 42.3 49.4 40.733 49.4 38.8C49.4 36.867 47.8778 35.3 46 35.3C44.1222 35.3 42.6 36.867 42.6 38.8C42.6 40.733 44.1222 42.3 46 42.3Z" fill="black"/>
<circle cx="30" cy="30" r="28.5" stroke="black" stroke-width="3"/>
</g>
<defs>
<clipPath id="clip0_761_1717">
<rect width="60" height="60" fill="white"/>
</clipPath>
</defs>
</svg>
