<svg width="74" height="71" viewBox="0 0 74 71" fill="none" xmlns="http://www.w3.org/2000/svg">
<path fill-rule="evenodd" clip-rule="evenodd" d="M37 4C37.1989 4 37.3897 4.07902 37.5303 4.21967L40.697 7.38634C40.9115 7.60084 40.9757 7.92342 40.8596 8.20368C40.7435 8.48394 40.47 8.66667 40.1667 8.66667H33.8333C33.53 8.66667 33.2565 8.48394 33.1404 8.20368C33.0243 7.92342 33.0885 7.60084 33.303 7.38634L36.4697 4.21967C36.6103 4.07902 36.8011 4 37 4ZM38.356 7.16667L37 5.81066L35.644 7.16667H38.356ZM26.75 6.33333C26.75 5.91912 27.0858 5.58333 27.5 5.58333H30.6667C31.0809 5.58333 31.4167 5.91912 31.4167 6.33333C31.4167 6.74755 31.0809 7.08333 30.6667 7.08333H28.25V32.5H45.75V7.08333H43.3333C42.9191 7.08333 42.5833 6.74755 42.5833 6.33333C42.5833 5.91912 42.9191 5.58333 43.3333 5.58333H46.5C46.9142 5.58333 47.25 5.91912 47.25 6.33333V33.25C47.25 33.6642 46.9142 34 46.5 34H27.5C27.0858 34 26.75 33.6642 26.75 33.25V6.33333ZM32.25 16.6667C31.8358 16.6667 31.5 17.0025 31.5 17.4167C31.5 17.8309 31.8358 18.1667 32.25 18.1667H41.75C42.1642 18.1667 42.5 17.8309 42.5 17.4167C42.5 17.0025 42.1642 16.6667 41.75 16.6667H32.25ZM31.5 22.1667C31.5 21.7525 31.8358 21.4167 32.25 21.4167H41.75C42.1642 21.4167 42.5 21.7525 42.5 22.1667C42.5 22.5809 42.1642 22.9167 41.75 22.9167H32.25C31.8358 22.9167 31.5 22.5809 31.5 22.1667ZM32.25 26.1667C31.8358 26.1667 31.5 26.5025 31.5 26.9167C31.5 27.3309 31.8358 27.6667 32.25 27.6667H41.75C42.1642 27.6667 42.5 27.3309 42.5 26.9167C42.5 26.5025 42.1642 26.1667 41.75 26.1667H32.25Z" fill="#262626"/>
<path d="M2.57418 44.095V52H1.25418V44.095H2.57418ZM1.89918 40.345C2.16918 40.345 2.38418 40.43 2.54418 40.6C2.70418 40.77 2.78418 40.99 2.78418 41.26C2.78418 41.51 2.69918 41.72 2.52918 41.89C2.36918 42.06 2.15918 42.145 1.89918 42.145C1.63918 42.145 1.42418 42.06 1.25418 41.89C1.09418 41.72 1.01418 41.51 1.01418 41.26C1.01418 41 1.09418 40.785 1.25418 40.615C1.42418 40.435 1.63918 40.345 1.89918 40.345ZM7.9948 43.93C8.56481 43.93 9.01981 44.135 9.3598 44.545C9.6998 44.955 9.8698 45.505 9.8698 46.195V52H8.5498V46.375C8.5498 45.865 8.4748 45.505 8.3248 45.295C8.1848 45.075 7.9698 44.965 7.6798 44.965C7.1098 44.965 6.5798 45.455 6.0898 46.435V52H4.7698V44.095H5.9098L6.0148 45.28C6.2748 44.84 6.5598 44.505 6.8698 44.275C7.1798 44.045 7.5548 43.93 7.9948 43.93ZM15.5011 51.64C15.0511 52 14.5461 52.18 13.9861 52.18C13.3961 52.18 12.9361 52.005 12.6061 51.655C12.2861 51.305 12.1261 50.835 12.1261 50.245V45.13H11.0611V44.095H12.1261V42.31L13.4461 42.145V44.095H14.9761L14.8411 45.13H13.4461V50.26C13.4461 50.81 13.6811 51.085 14.1511 51.085C14.3111 51.085 14.4511 51.065 14.5711 51.025C14.6911 50.985 14.8311 50.915 14.9911 50.815L15.5011 51.64ZM21.4864 47.815C21.4864 48.035 21.4764 48.265 21.4564 48.505H17.3164C17.3564 49.455 17.5114 50.125 17.7814 50.515C18.0614 50.905 18.4564 51.1 18.9664 51.1C19.2964 51.1 19.5914 51.05 19.8514 50.95C20.1114 50.84 20.3814 50.67 20.6614 50.44L21.2464 51.235C20.5864 51.865 19.8114 52.18 18.9214 52.18C17.9814 52.18 17.2514 51.835 16.7314 51.145C16.2114 50.445 15.9514 49.44 15.9514 48.13C15.9514 46.82 16.1964 45.795 16.6864 45.055C17.1864 44.305 17.8864 43.93 18.7864 43.93C19.6564 43.93 20.3214 44.26 20.7814 44.92C21.2514 45.57 21.4864 46.535 21.4864 47.815ZM20.2114 47.425C20.2114 46.565 20.0964 45.94 19.8664 45.55C19.6364 45.16 19.2764 44.965 18.7864 44.965C18.3464 44.965 18.0014 45.165 17.7514 45.565C17.5014 45.955 17.3564 46.61 17.3164 47.53H20.2114V47.425ZM26.2129 43.93C26.4329 43.93 26.6329 43.96 26.8129 44.02L26.5879 45.295C26.3879 45.245 26.2079 45.22 26.0479 45.22C25.6579 45.22 25.3379 45.395 25.0879 45.745C24.8379 46.095 24.6429 46.63 24.5029 47.35V52H23.1829V44.095H24.3229L24.4279 45.565C24.7979 44.475 25.3929 43.93 26.2129 43.93ZM31.2565 43.93C31.8265 43.93 32.2815 44.135 32.6215 44.545C32.9615 44.955 33.1315 45.505 33.1315 46.195V52H31.8115V46.375C31.8115 45.865 31.7365 45.505 31.5865 45.295C31.4465 45.075 31.2315 44.965 30.9415 44.965C30.3715 44.965 29.8415 45.455 29.3515 46.435V52H28.0315V44.095H29.1715L29.2765 45.28C29.5365 44.84 29.8215 44.505 30.1315 44.275C30.4415 44.045 30.8165 43.93 31.2565 43.93ZM39.8279 50.32C39.8279 50.6 39.8679 50.81 39.9479 50.95C40.0279 51.08 40.1579 51.185 40.3379 51.265L40.0529 52.18C39.6829 52.12 39.3879 52.005 39.1679 51.835C38.9579 51.655 38.8079 51.39 38.7179 51.04C38.2879 51.8 37.6579 52.18 36.8279 52.18C36.1779 52.18 35.6579 51.965 35.2679 51.535C34.8879 51.095 34.6979 50.515 34.6979 49.795C34.6979 48.955 34.9579 48.315 35.4779 47.875C35.9979 47.425 36.7529 47.2 37.7429 47.2H38.5229V46.48C38.5229 45.96 38.4179 45.58 38.2079 45.34C38.0079 45.1 37.6929 44.98 37.2629 44.98C36.7529 44.98 36.1579 45.115 35.4779 45.385L35.1479 44.455C35.9579 44.105 36.7179 43.93 37.4279 43.93C38.2379 43.93 38.8379 44.15 39.2279 44.59C39.6279 45.02 39.8279 45.63 39.8279 46.42V50.32ZM37.0979 51.19C37.7179 51.19 38.1929 50.77 38.5229 49.93V48.085H37.8929C37.2629 48.085 36.7979 48.22 36.4979 48.49C36.2079 48.76 36.0629 49.175 36.0629 49.735C36.0629 50.215 36.1529 50.58 36.3329 50.83C36.5129 51.07 36.7679 51.19 37.0979 51.19ZM45.5304 51.64C45.0804 52 44.5754 52.18 44.0154 52.18C43.4254 52.18 42.9654 52.005 42.6354 51.655C42.3154 51.305 42.1554 50.835 42.1554 50.245V45.13H41.0904V44.095H42.1554V42.31L43.4754 42.145V44.095H45.0054L44.8704 45.13H43.4754V50.26C43.4754 50.81 43.7104 51.085 44.1804 51.085C44.3404 51.085 44.4804 51.065 44.6004 51.025C44.7204 50.985 44.8604 50.915 45.0204 50.815L45.5304 51.64ZM47.9404 44.095V52H46.6204V44.095H47.9404ZM47.2654 40.345C47.5354 40.345 47.7504 40.43 47.9104 40.6C48.0704 40.77 48.1504 40.99 48.1504 41.26C48.1504 41.51 48.0654 41.72 47.8954 41.89C47.7354 42.06 47.5254 42.145 47.2654 42.145C47.0054 42.145 46.7904 42.06 46.6204 41.89C46.4604 41.72 46.3804 41.51 46.3804 41.26C46.3804 41 46.4604 40.785 46.6204 40.615C46.7904 40.435 47.0054 40.345 47.2654 40.345ZM52.686 43.93C53.626 43.93 54.351 44.28 54.861 44.98C55.381 45.67 55.641 46.69 55.641 48.04C55.641 49.31 55.376 50.32 54.846 51.07C54.326 51.81 53.601 52.18 52.671 52.18C51.741 52.18 51.016 51.815 50.496 51.085C49.976 50.355 49.716 49.345 49.716 48.055C49.716 46.725 49.976 45.705 50.496 44.995C51.016 44.285 51.746 43.93 52.686 43.93ZM52.686 44.995C52.156 44.995 51.761 45.235 51.501 45.715C51.241 46.185 51.111 46.965 51.111 48.055C51.111 49.135 51.241 49.915 51.501 50.395C51.761 50.875 52.151 51.115 52.671 51.115C53.201 51.115 53.596 50.875 53.856 50.395C54.116 49.915 54.246 49.13 54.246 48.04C54.246 46.96 54.116 46.185 53.856 45.715C53.596 45.235 53.206 44.995 52.686 44.995ZM60.6413 43.93C61.2113 43.93 61.6663 44.135 62.0063 44.545C62.3463 44.955 62.5163 45.505 62.5163 46.195V52H61.1963V46.375C61.1963 45.865 61.1213 45.505 60.9713 45.295C60.8313 45.075 60.6163 44.965 60.3263 44.965C59.7563 44.965 59.2263 45.455 58.7363 46.435V52H57.4163V44.095H58.5563L58.6613 45.28C58.9213 44.84 59.2063 44.505 59.5163 44.275C59.8263 44.045 60.2013 43.93 60.6413 43.93ZM69.2126 50.32C69.2126 50.6 69.2526 50.81 69.3326 50.95C69.4126 51.08 69.5426 51.185 69.7226 51.265L69.4376 52.18C69.0676 52.12 68.7726 52.005 68.5526 51.835C68.3426 51.655 68.1926 51.39 68.1026 51.04C67.6726 51.8 67.0426 52.18 66.2126 52.18C65.5626 52.18 65.0426 51.965 64.6526 51.535C64.2726 51.095 64.0826 50.515 64.0826 49.795C64.0826 48.955 64.3426 48.315 64.8626 47.875C65.3826 47.425 66.1376 47.2 67.1276 47.2H67.9076V46.48C67.9076 45.96 67.8026 45.58 67.5926 45.34C67.3926 45.1 67.0776 44.98 66.6476 44.98C66.1376 44.98 65.5426 45.115 64.8626 45.385L64.5326 44.455C65.3426 44.105 66.1026 43.93 66.8126 43.93C67.6226 43.93 68.2226 44.15 68.6126 44.59C69.0126 45.02 69.2126 45.63 69.2126 46.42V50.32ZM66.4826 51.19C67.1026 51.19 67.5776 50.77 67.9076 49.93V48.085H67.2776C66.6476 48.085 66.1826 48.22 65.8826 48.49C65.5926 48.76 65.4476 49.175 65.4476 49.735C65.4476 50.215 65.5376 50.58 65.7176 50.83C65.8976 51.07 66.1526 51.19 66.4826 51.19ZM72.6537 52.18C72.2137 52.18 71.8587 52.04 71.5887 51.76C71.3287 51.48 71.1987 51.1 71.1987 50.62V40.915L72.5187 40.765V50.59C72.5187 50.92 72.6587 51.085 72.9387 51.085C73.0687 51.085 73.1937 51.06 73.3137 51.01L73.6137 51.91C73.3237 52.09 73.0037 52.18 72.6537 52.18ZM5.55783 68.32C5.55783 68.6 5.59783 68.81 5.67783 68.95C5.75783 69.08 5.88783 69.185 6.06783 69.265L5.78283 70.18C5.41283 70.12 5.11783 70.005 4.89783 69.835C4.68783 69.655 4.53783 69.39 4.44783 69.04C4.01783 69.8 3.38783 70.18 2.55783 70.18C1.90783 70.18 1.38783 69.965 0.997832 69.535C0.617832 69.095 0.427832 68.515 0.427832 67.795C0.427832 66.955 0.687832 66.315 1.20783 65.875C1.72783 65.425 2.48283 65.2 3.47283 65.2H4.25283V64.48C4.25283 63.96 4.14783 63.58 3.93783 63.34C3.73783 63.1 3.42283 62.98 2.99283 62.98C2.48283 62.98 1.88783 63.115 1.20783 63.385L0.877832 62.455C1.68783 62.105 2.44783 61.93 3.15783 61.93C3.96783 61.93 4.56783 62.15 4.95783 62.59C5.35783 63.02 5.55783 63.63 5.55783 64.42V68.32ZM2.82783 69.19C3.44783 69.19 3.92283 68.77 4.25283 67.93V66.085H3.62283C2.99283 66.085 2.52783 66.22 2.22783 66.49C1.93783 66.76 1.79283 67.175 1.79283 67.735C1.79283 68.215 1.88283 68.58 2.06283 68.83C2.24283 69.07 2.49783 69.19 2.82783 69.19ZM10.3004 61.93C10.7004 61.93 11.0604 61.995 11.3804 62.125C11.7004 62.255 12.0104 62.47 12.3104 62.77L11.7104 63.55C11.4804 63.36 11.2554 63.22 11.0354 63.13C10.8254 63.04 10.5954 62.995 10.3454 62.995C9.28541 62.995 8.75541 64.025 8.75541 66.085C8.75541 67.155 8.89041 67.92 9.16041 68.38C9.43041 68.84 9.82041 69.07 10.3304 69.07C10.5804 69.07 10.8054 69.025 11.0054 68.935C11.2154 68.845 11.4454 68.705 11.6954 68.515L12.3104 69.31C11.7104 69.89 11.0454 70.18 10.3154 70.18C9.37541 70.18 8.64541 69.84 8.12541 69.16C7.60541 68.48 7.34541 67.465 7.34541 66.115C7.34541 64.795 7.61041 63.77 8.14041 63.04C8.67041 62.3 9.39041 61.93 10.3004 61.93ZM15.8668 61.93C16.2668 61.93 16.6268 61.995 16.9468 62.125C17.2668 62.255 17.5768 62.47 17.8768 62.77L17.2768 63.55C17.0468 63.36 16.8218 63.22 16.6018 63.13C16.3918 63.04 16.1618 62.995 15.9118 62.995C14.8518 62.995 14.3218 64.025 14.3218 66.085C14.3218 67.155 14.4568 67.92 14.7268 68.38C14.9968 68.84 15.3868 69.07 15.8968 69.07C16.1468 69.07 16.3718 69.025 16.5718 68.935C16.7818 68.845 17.0118 68.705 17.2618 68.515L17.8768 69.31C17.2768 69.89 16.6118 70.18 15.8818 70.18C14.9418 70.18 14.2118 69.84 13.6918 69.16C13.1718 68.48 12.9118 67.465 12.9118 66.115C12.9118 64.795 13.1768 63.77 13.7068 63.04C14.2368 62.3 14.9568 61.93 15.8668 61.93ZM22.2212 61.93C22.4412 61.93 22.6412 61.96 22.8212 62.02L22.5962 63.295C22.3962 63.245 22.2162 63.22 22.0562 63.22C21.6662 63.22 21.3462 63.395 21.0962 63.745C20.8462 64.095 20.6512 64.63 20.5112 65.35V70H19.1912V62.095H20.3312L20.4362 63.565C20.8062 62.475 21.4012 61.93 22.2212 61.93ZM28.7447 65.815C28.7447 66.035 28.7347 66.265 28.7147 66.505H24.5747C24.6147 67.455 24.7697 68.125 25.0397 68.515C25.3197 68.905 25.7147 69.1 26.2247 69.1C26.5547 69.1 26.8497 69.05 27.1097 68.95C27.3697 68.84 27.6397 68.67 27.9197 68.44L28.5047 69.235C27.8447 69.865 27.0697 70.18 26.1797 70.18C25.2397 70.18 24.5097 69.835 23.9897 69.145C23.4697 68.445 23.2097 67.44 23.2097 66.13C23.2097 64.82 23.4547 63.795 23.9447 63.055C24.4447 62.305 25.1447 61.93 26.0447 61.93C26.9147 61.93 27.5797 62.26 28.0397 62.92C28.5097 63.57 28.7447 64.535 28.7447 65.815ZM27.4697 65.425C27.4697 64.565 27.3547 63.94 27.1247 63.55C26.8947 63.16 26.5347 62.965 26.0447 62.965C25.6047 62.965 25.2597 63.165 25.0097 63.565C24.7597 63.955 24.6147 64.61 24.5747 65.53H27.4697V65.425ZM35.6162 58.915V70H34.4462L34.3562 68.995C33.8862 69.785 33.2862 70.18 32.5562 70.18C31.7362 70.18 31.1062 69.82 30.6662 69.1C30.2362 68.37 30.0212 67.365 30.0212 66.085C30.0212 65.255 30.1312 64.525 30.3512 63.895C30.5712 63.265 30.8762 62.78 31.2662 62.44C31.6562 62.1 32.1012 61.93 32.6012 61.93C33.2912 61.93 33.8562 62.235 34.2962 62.845V58.765L35.6162 58.915ZM32.8112 69.13C33.3812 69.13 33.8762 68.755 34.2962 68.005V64C33.8862 63.32 33.4112 62.98 32.8712 62.98C32.4112 62.98 32.0512 63.23 31.7912 63.73C31.5412 64.23 31.4162 65.005 31.4162 66.055C31.4162 68.105 31.8812 69.13 32.8112 69.13ZM39.1294 62.095V70H37.8094V62.095H39.1294ZM38.4544 58.345C38.7244 58.345 38.9394 58.43 39.0994 58.6C39.2594 58.77 39.3394 58.99 39.3394 59.26C39.3394 59.51 39.2544 59.72 39.0844 59.89C38.9244 60.06 38.7144 60.145 38.4544 60.145C38.1944 60.145 37.9794 60.06 37.8094 59.89C37.6494 59.72 37.5694 59.51 37.5694 59.26C37.5694 59 37.6494 58.785 37.8094 58.615C37.9794 58.435 38.1944 58.345 38.4544 58.345ZM44.82 69.64C44.37 70 43.865 70.18 43.305 70.18C42.715 70.18 42.255 70.005 41.925 69.655C41.605 69.305 41.445 68.835 41.445 68.245V63.13H40.38V62.095H41.445V60.31L42.765 60.145V62.095H44.295L44.16 63.13H42.765V68.26C42.765 68.81 43 69.085 43.47 69.085C43.63 69.085 43.77 69.065 43.89 69.025C44.01 68.985 44.15 68.915 44.31 68.815L44.82 69.64ZM50.3674 68.32C50.3674 68.6 50.4074 68.81 50.4874 68.95C50.5674 69.08 50.6974 69.185 50.8774 69.265L50.5924 70.18C50.2224 70.12 49.9274 70.005 49.7074 69.835C49.4974 69.655 49.3474 69.39 49.2574 69.04C48.8274 69.8 48.1974 70.18 47.3674 70.18C46.7174 70.18 46.1974 69.965 45.8074 69.535C45.4274 69.095 45.2374 68.515 45.2374 67.795C45.2374 66.955 45.4974 66.315 46.0174 65.875C46.5374 65.425 47.2924 65.2 48.2824 65.2H49.0624V64.48C49.0624 63.96 48.9574 63.58 48.7474 63.34C48.5474 63.1 48.2324 62.98 47.8024 62.98C47.2924 62.98 46.6974 63.115 46.0174 63.385L45.6874 62.455C46.4974 62.105 47.2574 61.93 47.9674 61.93C48.7774 61.93 49.3774 62.15 49.7674 62.59C50.1674 63.02 50.3674 63.63 50.3674 64.42V68.32ZM47.6374 69.19C48.2574 69.19 48.7324 68.77 49.0624 67.93V66.085H48.4324C47.8024 66.085 47.3374 66.22 47.0374 66.49C46.7474 66.76 46.6024 67.175 46.6024 67.735C46.6024 68.215 46.6924 68.58 46.8724 68.83C47.0524 69.07 47.3074 69.19 47.6374 69.19ZM56.07 69.64C55.62 70 55.115 70.18 54.555 70.18C53.965 70.18 53.505 70.005 53.175 69.655C52.855 69.305 52.695 68.835 52.695 68.245V63.13H51.63V62.095H52.695V60.31L54.015 60.145V62.095H55.545L55.41 63.13H54.015V68.26C54.015 68.81 54.25 69.085 54.72 69.085C54.88 69.085 55.02 69.065 55.14 69.025C55.26 68.985 55.4 68.915 55.56 68.815L56.07 69.64ZM58.4799 62.095V70H57.1599V62.095H58.4799ZM57.8049 58.345C58.0749 58.345 58.2899 58.43 58.4499 58.6C58.6099 58.77 58.6899 58.99 58.6899 59.26C58.6899 59.51 58.6049 59.72 58.4349 59.89C58.2749 60.06 58.0649 60.145 57.8049 60.145C57.5449 60.145 57.3299 60.06 57.1599 59.89C56.9999 59.72 56.9199 59.51 56.9199 59.26C56.9199 59 56.9999 58.785 57.1599 58.615C57.3299 58.435 57.5449 58.345 57.8049 58.345ZM63.2256 61.93C64.1656 61.93 64.8906 62.28 65.4006 62.98C65.9206 63.67 66.1806 64.69 66.1806 66.04C66.1806 67.31 65.9156 68.32 65.3856 69.07C64.8656 69.81 64.1406 70.18 63.2106 70.18C62.2806 70.18 61.5556 69.815 61.0356 69.085C60.5156 68.355 60.2556 67.345 60.2556 66.055C60.2556 64.725 60.5156 63.705 61.0356 62.995C61.5556 62.285 62.2856 61.93 63.2256 61.93ZM63.2256 62.995C62.6956 62.995 62.3006 63.235 62.0406 63.715C61.7806 64.185 61.6506 64.965 61.6506 66.055C61.6506 67.135 61.7806 67.915 62.0406 68.395C62.3006 68.875 62.6906 69.115 63.2106 69.115C63.7406 69.115 64.1356 68.875 64.3956 68.395C64.6556 67.915 64.7856 67.13 64.7856 66.04C64.7856 64.96 64.6556 64.185 64.3956 63.715C64.1356 63.235 63.7456 62.995 63.2256 62.995ZM71.1808 61.93C71.7508 61.93 72.2058 62.135 72.5458 62.545C72.8858 62.955 73.0558 63.505 73.0558 64.195V70H71.7358V64.375C71.7358 63.865 71.6608 63.505 71.5108 63.295C71.3708 63.075 71.1558 62.965 70.8658 62.965C70.2958 62.965 69.7658 63.455 69.2758 64.435V70H67.9558V62.095H69.0958L69.2008 63.28C69.4608 62.84 69.7458 62.505 70.0558 62.275C70.3658 62.045 70.7408 61.93 71.1808 61.93Z" fill="black"/>
</svg>
