<svg width="66" height="64" viewBox="0 0 66 64" fill="none" xmlns="http://www.w3.org/2000/svg">
<path d="M39.5209 23.7662C39.6927 22.5628 39.3707 21.3393 38.6258 20.3647C37.8809 19.3901 36.7741 18.7443 35.5488 18.5693" stroke="black" stroke-width="2" stroke-linecap="round" stroke-linejoin="round"/>
<path d="M21.0416 21.1281C21.557 17.518 23.5114 14.2642 26.475 12.0825C29.4386 9.90082 33.1686 8.96997 36.8443 9.49473C40.5201 10.0195 43.8406 11.9569 46.0753 14.8807C48.31 17.8045 49.2759 21.4752 48.7605 25.0853C47.1508 36.3606 39.6412 44.6176 31.9861 43.5247C24.3311 42.4318 19.4319 32.4034 21.0416 21.1281Z" stroke="black" stroke-width="2" stroke-linecap="round" stroke-linejoin="round"/>
<path d="M31.9862 43.5247L31.6623 45.7934C31.4905 46.9967 30.839 48.0813 29.8511 48.8086C28.8633 49.5358 27.6199 49.8461 26.3947 49.6712L19.465 48.6818C18.2397 48.5069 16.9964 48.8172 16.0085 49.5444C15.0207 50.2717 14.3692 51.3563 14.1974 52.5596" stroke="black" stroke-width="2" stroke-linecap="round" stroke-linejoin="round"/>
<path d="M64 31.5C64 48.3155 49.9267 62 32.5 62C15.0733 62 1 48.3155 1 31.5C1 14.6845 15.0733 1 32.5 1C49.9267 1 64 14.6845 64 31.5Z" stroke="black" stroke-width="2"/>
</svg>
