<svg width="85" height="74" viewBox="0 0 85 74" fill="none" xmlns="http://www.w3.org/2000/svg">
<path fill-rule="evenodd" clip-rule="evenodd" d="M33.6931 8.52656C37.7286 4.49115 44.2713 4.49115 48.3067 8.52656C52.3107 12.5306 52.0956 18.7547 48.2697 23.1799C47.5085 24.0603 45.5405 26.4661 43.7728 28.6392C42.8867 29.7285 42.0476 30.7633 41.4302 31.5258L40.9999 32.0573L40.5697 31.5258C39.9522 30.7633 39.1132 29.7285 38.2271 28.6392C36.4594 26.4661 34.4913 24.0603 33.7302 23.1799C29.9043 18.7547 29.6891 12.5306 33.6931 8.52656ZM40.4164 33.7212C40.4165 33.7213 40.4165 33.7213 40.9999 33.25L40.4165 33.7213C40.5589 33.8976 40.7733 34 40.9999 34C41.2265 34 41.441 33.8976 41.5834 33.7213L40.9999 33.25C41.5834 33.7213 41.5834 33.7213 41.5834 33.7212L41.5836 33.7209L41.5845 33.7199L41.5879 33.7156L41.6015 33.6988L41.6547 33.633L41.8582 33.3813C42.0342 33.1637 42.2874 32.8507 42.5959 32.4698C43.2129 31.7079 44.0512 30.6739 44.9364 29.5857C46.7113 27.4039 48.6617 25.0199 49.4044 24.1609C53.6543 19.2453 54.0199 12.1185 49.3673 7.4659C44.7461 2.8447 37.2537 2.8447 32.6325 7.4659C27.9799 12.1185 28.3456 19.2453 32.5955 24.1609C33.3381 25.0199 35.2886 27.4039 37.0635 29.5858C37.9487 30.6739 38.787 31.7079 39.404 32.4698C39.7125 32.8507 39.9657 33.1637 40.1417 33.3813L40.3451 33.633L40.3983 33.6988L40.4119 33.7156L40.4154 33.7199L40.4162 33.7209L40.4164 33.7212ZM36.9996 15.8333C36.9996 13.6242 38.7905 11.8333 40.9996 11.8333C43.2088 11.8333 44.9996 13.6242 44.9996 15.8333C44.9996 18.0425 43.2088 19.8333 40.9996 19.8333C38.7905 19.8333 36.9996 18.0425 36.9996 15.8333ZM40.9996 10.3333C37.9621 10.3333 35.4996 12.7958 35.4996 15.8333C35.4996 18.8709 37.9621 21.3333 40.9996 21.3333C44.0372 21.3333 46.4996 18.8709 46.4996 15.8333C46.4996 12.7958 44.0372 10.3333 40.9996 10.3333Z" fill="#262626"/>
<path d="M22.5035 43.93C22.9035 43.93 23.2635 43.995 23.5835 44.125C23.9035 44.255 24.2135 44.47 24.5135 44.77L23.9135 45.55C23.6835 45.36 23.4585 45.22 23.2385 45.13C23.0285 45.04 22.7985 44.995 22.5485 44.995C21.4885 44.995 20.9585 46.025 20.9585 48.085C20.9585 49.155 21.0935 49.92 21.3635 50.38C21.6335 50.84 22.0235 51.07 22.5335 51.07C22.7835 51.07 23.0085 51.025 23.2085 50.935C23.4185 50.845 23.6485 50.705 23.8985 50.515L24.5135 51.31C23.9135 51.89 23.2485 52.18 22.5185 52.18C21.5785 52.18 20.8485 51.84 20.3285 51.16C19.8085 50.48 19.5485 49.465 19.5485 48.115C19.5485 46.795 19.8135 45.77 20.3435 45.04C20.8735 44.3 21.5935 43.93 22.5035 43.93ZM27.2079 52.18C26.7679 52.18 26.4129 52.04 26.1429 51.76C25.8829 51.48 25.7529 51.1 25.7529 50.62V40.915L27.0729 40.765V50.59C27.0729 50.92 27.2129 51.085 27.4929 51.085C27.6229 51.085 27.7479 51.06 27.8679 51.01L28.1679 51.91C27.8779 52.09 27.5579 52.18 27.2079 52.18ZM31.9668 43.93C32.9068 43.93 33.6318 44.28 34.1418 44.98C34.6618 45.67 34.9218 46.69 34.9218 48.04C34.9218 49.31 34.6568 50.32 34.1268 51.07C33.6068 51.81 32.8818 52.18 31.9518 52.18C31.0218 52.18 30.2968 51.815 29.7768 51.085C29.2568 50.355 28.9968 49.345 28.9968 48.055C28.9968 46.725 29.2568 45.705 29.7768 44.995C30.2968 44.285 31.0268 43.93 31.9668 43.93ZM31.9668 44.995C31.4368 44.995 31.0418 45.235 30.7818 45.715C30.5218 46.185 30.3918 46.965 30.3918 48.055C30.3918 49.135 30.5218 49.915 30.7818 50.395C31.0418 50.875 31.4318 51.115 31.9518 51.115C32.4818 51.115 32.8768 50.875 33.1368 50.395C33.3968 49.915 33.5268 49.13 33.5268 48.04C33.5268 46.96 33.3968 46.185 33.1368 45.715C32.8768 45.235 32.4868 44.995 31.9668 44.995ZM38.6171 43.93C39.4871 43.93 40.2321 44.225 40.8521 44.815L40.2821 45.58C40.0021 45.37 39.7321 45.215 39.4721 45.115C39.2121 45.005 38.9371 44.95 38.6471 44.95C38.2971 44.95 38.0171 45.05 37.8071 45.25C37.6071 45.44 37.5071 45.705 37.5071 46.045C37.5071 46.375 37.6071 46.635 37.8071 46.825C38.0071 47.015 38.3871 47.21 38.9471 47.41C39.6671 47.67 40.1971 47.98 40.5371 48.34C40.8771 48.7 41.0471 49.19 41.0471 49.81C41.0471 50.56 40.7921 51.145 40.2821 51.565C39.7821 51.975 39.1571 52.18 38.4071 52.18C37.4071 52.18 36.5721 51.835 35.9021 51.145L36.5921 50.41C37.1521 50.9 37.7471 51.145 38.3771 51.145C38.7771 51.145 39.0971 51.035 39.3371 50.815C39.5771 50.595 39.6971 50.285 39.6971 49.885C39.6971 49.615 39.6521 49.395 39.5621 49.225C39.4721 49.055 39.3171 48.9 39.0971 48.76C38.8771 48.62 38.5571 48.475 38.1371 48.325C37.4371 48.065 36.9371 47.76 36.6371 47.41C36.3371 47.05 36.1871 46.61 36.1871 46.09C36.1871 45.69 36.2871 45.325 36.4871 44.995C36.6971 44.665 36.9871 44.405 37.3571 44.215C37.7271 44.025 38.1471 43.93 38.6171 43.93ZM47.7007 47.815C47.7007 48.035 47.6907 48.265 47.6707 48.505H43.5307C43.5707 49.455 43.7257 50.125 43.9957 50.515C44.2757 50.905 44.6707 51.1 45.1807 51.1C45.5107 51.1 45.8057 51.05 46.0657 50.95C46.3257 50.84 46.5957 50.67 46.8757 50.44L47.4607 51.235C46.8007 51.865 46.0257 52.18 45.1357 52.18C44.1957 52.18 43.4657 51.835 42.9457 51.145C42.4257 50.445 42.1657 49.44 42.1657 48.13C42.1657 46.82 42.4107 45.795 42.9007 45.055C43.4007 44.305 44.1007 43.93 45.0007 43.93C45.8707 43.93 46.5357 44.26 46.9957 44.92C47.4657 45.57 47.7007 46.535 47.7007 47.815ZM46.4257 47.425C46.4257 46.565 46.3107 45.94 46.0807 45.55C45.8507 45.16 45.4907 44.965 45.0007 44.965C44.5607 44.965 44.2157 45.165 43.9657 45.565C43.7157 45.955 43.5707 46.61 43.5307 47.53H46.4257V47.425ZM56.071 51.64C55.621 52 55.116 52.18 54.556 52.18C53.966 52.18 53.506 52.005 53.176 51.655C52.856 51.305 52.696 50.835 52.696 50.245V45.13H51.631V44.095H52.696V42.31L54.016 42.145V44.095H55.546L55.411 45.13H54.016V50.26C54.016 50.81 54.251 51.085 54.721 51.085C54.881 51.085 55.021 51.065 55.141 51.025C55.261 50.985 55.401 50.915 55.561 50.815L56.071 51.64ZM59.4912 43.93C60.4312 43.93 61.1562 44.28 61.6662 44.98C62.1862 45.67 62.4462 46.69 62.4462 48.04C62.4462 49.31 62.1812 50.32 61.6512 51.07C61.1312 51.81 60.4062 52.18 59.4762 52.18C58.5462 52.18 57.8212 51.815 57.3012 51.085C56.7812 50.355 56.5212 49.345 56.5212 48.055C56.5212 46.725 56.7812 45.705 57.3012 44.995C57.8212 44.285 58.5512 43.93 59.4912 43.93ZM59.4912 44.995C58.9612 44.995 58.5662 45.235 58.3062 45.715C58.0462 46.185 57.9162 46.965 57.9162 48.055C57.9162 49.135 58.0462 49.915 58.3062 50.395C58.5662 50.875 58.9562 51.115 59.4762 51.115C60.0062 51.115 60.4012 50.875 60.6612 50.395C60.9212 49.915 61.0512 49.13 61.0512 48.04C61.0512 46.96 60.9212 46.185 60.6612 45.715C60.4012 45.235 60.0112 44.995 59.4912 44.995ZM7.234 61.93C7.764 61.93 8.189 62.14 8.509 62.56C8.829 62.97 8.989 63.515 8.989 64.195V70H7.699V64.36C7.699 63.86 7.629 63.5 7.489 63.28C7.359 63.06 7.164 62.95 6.904 62.95C6.374 62.95 5.884 63.42 5.434 64.36V70H4.144V64.36C4.144 63.42 3.879 62.95 3.349 62.95C3.069 62.95 2.799 63.075 2.539 63.325C2.289 63.575 2.064 63.92 1.864 64.36V70H0.574004V62.095H1.714L1.804 63.235C2.304 62.365 2.929 61.93 3.679 61.93C4.079 61.93 4.414 62.055 4.684 62.305C4.964 62.545 5.164 62.89 5.284 63.34C5.824 62.4 6.474 61.93 7.234 61.93ZM13.8833 70.045C13.6333 70.955 13.2633 71.675 12.7733 72.205C12.2833 72.735 11.6033 73.06 10.7333 73.18L10.5833 72.175C11.2133 72.035 11.6733 71.805 11.9633 71.485C12.2533 71.165 12.4983 70.67 12.6983 70H12.2033L10.0733 62.095H11.4233L13.0733 69.04L14.7083 62.095H16.0433L13.8833 70.045ZM25.8516 62.44C25.6216 62.54 25.3616 62.605 25.0716 62.635C24.7916 62.665 24.4316 62.68 23.9916 62.68C24.7616 63.1 25.1466 63.77 25.1466 64.69C25.1466 65.5 24.9216 66.15 24.4716 66.64C24.0216 67.12 23.4016 67.36 22.6116 67.36C22.3216 67.36 22.0566 67.31 21.8166 67.21C21.7166 67.29 21.6366 67.4 21.5766 67.54C21.5266 67.67 21.5016 67.81 21.5016 67.96C21.5016 68.18 21.5616 68.355 21.6816 68.485C21.8016 68.605 22.0166 68.665 22.3266 68.665H23.1966C23.6866 68.665 24.1166 68.76 24.4866 68.95C24.8566 69.14 25.1366 69.4 25.3266 69.73C25.5266 70.05 25.6266 70.405 25.6266 70.795C25.6266 71.515 25.3566 72.09 24.8166 72.52C24.2866 72.96 23.5166 73.18 22.5066 73.18C21.4666 73.18 20.7266 72.975 20.2866 72.565C19.8566 72.165 19.6416 71.575 19.6416 70.795H20.8116C20.8116 71.285 20.9316 71.63 21.1716 71.83C21.4116 72.04 21.8616 72.145 22.5216 72.145C23.1616 72.145 23.6216 72.035 23.9016 71.815C24.1816 71.605 24.3216 71.295 24.3216 70.885C24.3216 70.105 23.8616 69.715 22.9416 69.715H22.3866C21.6666 69.715 21.1416 69.585 20.8116 69.325C20.4816 69.055 20.3166 68.695 20.3166 68.245C20.3166 67.765 20.5766 67.315 21.0966 66.895C20.3266 66.425 19.9416 65.685 19.9416 64.675C19.9416 63.845 20.1866 63.18 20.6766 62.68C21.1666 62.18 21.8016 61.93 22.5816 61.93C23.2816 61.93 23.8316 61.875 24.2316 61.765C24.6316 61.655 25.0416 61.485 25.4616 61.255L25.8516 62.44ZM22.5666 62.875C22.1266 62.875 21.7966 63.02 21.5766 63.31C21.3566 63.6 21.2466 64.055 21.2466 64.675C21.2466 65.215 21.3616 65.65 21.5916 65.98C21.8216 66.31 22.1416 66.475 22.5516 66.475C22.9916 66.475 23.3166 66.335 23.5266 66.055C23.7366 65.775 23.8416 65.31 23.8416 64.66C23.8416 63.47 23.4166 62.875 22.5666 62.875ZM31.8511 65.815C31.8511 66.035 31.8411 66.265 31.8211 66.505H27.6811C27.7211 67.455 27.8761 68.125 28.1461 68.515C28.4261 68.905 28.8211 69.1 29.3311 69.1C29.6611 69.1 29.9561 69.05 30.2161 68.95C30.4761 68.84 30.7461 68.67 31.0261 68.44L31.6111 69.235C30.9511 69.865 30.1761 70.18 29.2861 70.18C28.3461 70.18 27.6161 69.835 27.0961 69.145C26.5761 68.445 26.3161 67.44 26.3161 66.13C26.3161 64.82 26.5611 63.795 27.0511 63.055C27.5511 62.305 28.2511 61.93 29.1511 61.93C30.0211 61.93 30.6861 62.26 31.1461 62.92C31.6161 63.57 31.8511 64.535 31.8511 65.815ZM30.5761 65.425C30.5761 64.565 30.4611 63.94 30.2311 63.55C30.0011 63.16 29.6411 62.965 29.1511 62.965C28.7111 62.965 28.3661 63.165 28.1161 63.565C27.8661 63.955 27.7211 64.61 27.6811 65.53H30.5761V65.425ZM36.0976 61.93C37.0376 61.93 37.7626 62.28 38.2726 62.98C38.7926 63.67 39.0526 64.69 39.0526 66.04C39.0526 67.31 38.7876 68.32 38.2576 69.07C37.7376 69.81 37.0126 70.18 36.0826 70.18C35.1526 70.18 34.4276 69.815 33.9076 69.085C33.3876 68.355 33.1276 67.345 33.1276 66.055C33.1276 64.725 33.3876 63.705 33.9076 62.995C34.4276 62.285 35.1576 61.93 36.0976 61.93ZM36.0976 62.995C35.5676 62.995 35.1726 63.235 34.9126 63.715C34.6526 64.185 34.5226 64.965 34.5226 66.055C34.5226 67.135 34.6526 67.915 34.9126 68.395C35.1726 68.875 35.5626 69.115 36.0826 69.115C36.6126 69.115 37.0076 68.875 37.2676 68.395C37.5276 67.915 37.6576 67.13 37.6576 66.04C37.6576 64.96 37.5276 64.185 37.2676 63.715C37.0076 63.235 36.6176 62.995 36.0976 62.995ZM42.2079 70.18C41.7679 70.18 41.4129 70.04 41.1429 69.76C40.8829 69.48 40.7529 69.1 40.7529 68.62V58.915L42.0729 58.765V68.59C42.0729 68.92 42.2129 69.085 42.4929 69.085C42.6229 69.085 42.7479 69.06 42.8679 69.01L43.1679 69.91C42.8779 70.09 42.5579 70.18 42.2079 70.18ZM46.9668 61.93C47.9068 61.93 48.6318 62.28 49.1418 62.98C49.6618 63.67 49.9218 64.69 49.9218 66.04C49.9218 67.31 49.6568 68.32 49.1268 69.07C48.6068 69.81 47.8818 70.18 46.9518 70.18C46.0218 70.18 45.2968 69.815 44.7768 69.085C44.2568 68.355 43.9968 67.345 43.9968 66.055C43.9968 64.725 44.2568 63.705 44.7768 62.995C45.2968 62.285 46.0268 61.93 46.9668 61.93ZM46.9668 62.995C46.4368 62.995 46.0418 63.235 45.7818 63.715C45.5218 64.185 45.3918 64.965 45.3918 66.055C45.3918 67.135 45.5218 67.915 45.7818 68.395C46.0418 68.875 46.4318 69.115 46.9518 69.115C47.4818 69.115 47.8768 68.875 48.1368 68.395C48.3968 67.915 48.5268 67.13 48.5268 66.04C48.5268 64.96 48.3968 64.185 48.1368 63.715C47.8768 63.235 47.4868 62.995 46.9668 62.995ZM54.2321 61.93C54.6321 61.93 54.9921 61.995 55.3121 62.125C55.6321 62.255 55.9421 62.47 56.2421 62.77L55.6421 63.55C55.4121 63.36 55.1871 63.22 54.9671 63.13C54.7571 63.04 54.5271 62.995 54.2771 62.995C53.2171 62.995 52.6871 64.025 52.6871 66.085C52.6871 67.155 52.8221 67.92 53.0921 68.38C53.3621 68.84 53.7521 69.07 54.2621 69.07C54.5121 69.07 54.7371 69.025 54.9371 68.935C55.1471 68.845 55.3771 68.705 55.6271 68.515L56.2421 69.31C55.6421 69.89 54.9771 70.18 54.2471 70.18C53.3071 70.18 52.5771 69.84 52.0571 69.16C51.5371 68.48 51.2771 67.465 51.2771 66.115C51.2771 64.795 51.5421 63.77 52.0721 63.04C52.6021 62.3 53.3221 61.93 54.2321 61.93ZM61.9699 68.32C61.9699 68.6 62.0099 68.81 62.0899 68.95C62.1699 69.08 62.2999 69.185 62.4799 69.265L62.1949 70.18C61.8249 70.12 61.5299 70.005 61.3099 69.835C61.0999 69.655 60.9499 69.39 60.8599 69.04C60.4299 69.8 59.7999 70.18 58.9699 70.18C58.3199 70.18 57.7999 69.965 57.4099 69.535C57.0299 69.095 56.8399 68.515 56.8399 67.795C56.8399 66.955 57.0999 66.315 57.6199 65.875C58.1399 65.425 58.8949 65.2 59.8849 65.2H60.6649V64.48C60.6649 63.96 60.5599 63.58 60.3499 63.34C60.1499 63.1 59.8349 62.98 59.4049 62.98C58.8949 62.98 58.2999 63.115 57.6199 63.385L57.2899 62.455C58.0999 62.105 58.8599 61.93 59.5699 61.93C60.3799 61.93 60.9799 62.15 61.3699 62.59C61.7699 63.02 61.9699 63.63 61.9699 64.42V68.32ZM59.2399 69.19C59.8599 69.19 60.3349 68.77 60.6649 67.93V66.085H60.0349C59.4049 66.085 58.9399 66.22 58.6399 66.49C58.3499 66.76 58.2049 67.175 58.2049 67.735C58.2049 68.215 58.2949 68.58 58.4749 68.83C58.6549 69.07 58.9099 69.19 59.2399 69.19ZM67.6725 69.64C67.2225 70 66.7175 70.18 66.1575 70.18C65.5675 70.18 65.1075 70.005 64.7775 69.655C64.4575 69.305 64.2975 68.835 64.2975 68.245V63.13H63.2325V62.095H64.2975V60.31L65.6175 60.145V62.095H67.1475L67.0125 63.13H65.6175V68.26C65.6175 68.81 65.8525 69.085 66.3225 69.085C66.4825 69.085 66.6225 69.065 66.7425 69.025C66.8625 68.985 67.0025 68.915 67.1625 68.815L67.6725 69.64ZM70.0825 62.095V70H68.7625V62.095H70.0825ZM69.4075 58.345C69.6775 58.345 69.8925 58.43 70.0525 58.6C70.2125 58.77 70.2925 58.99 70.2925 59.26C70.2925 59.51 70.2075 59.72 70.0375 59.89C69.8775 60.06 69.6675 60.145 69.4075 60.145C69.1475 60.145 68.9325 60.06 68.7625 59.89C68.6025 59.72 68.5225 59.51 68.5225 59.26C68.5225 59 68.6025 58.785 68.7625 58.615C68.9325 58.435 69.1475 58.345 69.4075 58.345ZM74.8281 61.93C75.7681 61.93 76.4931 62.28 77.0031 62.98C77.5231 63.67 77.7831 64.69 77.7831 66.04C77.7831 67.31 77.5181 68.32 76.9881 69.07C76.4681 69.81 75.7431 70.18 74.8131 70.18C73.8831 70.18 73.1581 69.815 72.6381 69.085C72.1181 68.355 71.8581 67.345 71.8581 66.055C71.8581 64.725 72.1181 63.705 72.6381 62.995C73.1581 62.285 73.8881 61.93 74.8281 61.93ZM74.8281 62.995C74.2981 62.995 73.9031 63.235 73.6431 63.715C73.3831 64.185 73.2531 64.965 73.2531 66.055C73.2531 67.135 73.3831 67.915 73.6431 68.395C73.9031 68.875 74.2931 69.115 74.8131 69.115C75.3431 69.115 75.7381 68.875 75.9981 68.395C76.2581 67.915 76.3881 67.13 76.3881 66.04C76.3881 64.96 76.2581 64.185 75.9981 63.715C75.7381 63.235 75.3481 62.995 74.8281 62.995ZM82.7834 61.93C83.3534 61.93 83.8084 62.135 84.1484 62.545C84.4884 62.955 84.6584 63.505 84.6584 64.195V70H83.3384V64.375C83.3384 63.865 83.2634 63.505 83.1134 63.295C82.9734 63.075 82.7584 62.965 82.4684 62.965C81.8984 62.965 81.3684 63.455 80.8784 64.435V70H79.5584V62.095H80.6984L80.8034 63.28C81.0634 62.84 81.3484 62.505 81.6584 62.275C81.9684 62.045 82.3434 61.93 82.7834 61.93Z" fill="black"/>
</svg>
