<svg width="32" height="32" viewBox="0 0 32 32" fill="none" xmlns="http://www.w3.org/2000/svg">
<path fill-rule="evenodd" clip-rule="evenodd" d="M16 31C24.2843 31 31 24.2843 31 16C31 7.71573 24.2843 1 16 1C7.71573 1 1 7.71573 1 16C1 19.2121 2.00964 22.1884 3.72887 24.6289C3.89716 24.8677 3.96326 25.1653 3.89987 25.4506L3.38314 27.7759C3.21452 28.5346 3.93815 29.1873 4.67555 28.9415L6.66425 28.2786C6.97153 28.1762 7.30812 28.2308 7.57596 28.4129C9.97729 30.0457 12.8772 31 16 31Z" fill="white"/>
<path d="M6.66425 28.2786L6.82237 28.7529L6.66425 28.2786ZM7.57596 28.4129L7.29482 28.8264L7.57596 28.4129ZM4.67555 28.9415L4.51744 28.4671L4.67555 28.9415ZM3.72887 24.6289L4.13763 24.3409L3.72887 24.6289ZM3.89987 25.4506L3.41177 25.3421L3.89987 25.4506ZM30.5 16C30.5 24.0081 24.0081 30.5 16 30.5V31.5C24.5604 31.5 31.5 24.5604 31.5 16H30.5ZM16 1.5C24.0081 1.5 30.5 7.99187 30.5 16H31.5C31.5 7.43959 24.5604 0.5 16 0.5V1.5ZM1.5 16C1.5 7.99187 7.99187 1.5 16 1.5V0.5C7.43959 0.5 0.5 7.43959 0.5 16H1.5ZM4.13763 24.3409C2.47583 21.982 1.5 19.1057 1.5 16H0.5C0.5 19.3185 1.54345 22.3948 3.32012 24.9168L4.13763 24.3409ZM3.87123 27.8843L4.38796 25.5591L3.41177 25.3421L2.89505 27.6674L3.87123 27.8843ZM6.50614 27.8042L4.51744 28.4671L4.83367 29.4158L6.82237 28.7529L6.50614 27.8042ZM16 30.5C12.9806 30.5 10.1781 29.5777 7.85711 27.9994L7.29482 28.8264C9.77644 30.5138 12.7738 31.5 16 31.5V30.5ZM6.82237 28.7529C6.97303 28.7027 7.14811 28.7266 7.29482 28.8264L7.85711 27.9994C7.46813 27.7349 6.97003 27.6496 6.50614 27.8042L6.82237 28.7529ZM2.89505 27.6674C2.64212 28.8056 3.72756 29.7845 4.83367 29.4158L4.51744 28.4671C4.14874 28.59 3.78692 28.2637 3.87123 27.8843L2.89505 27.6674ZM3.32012 24.9168C3.41209 25.0474 3.44288 25.2022 3.41177 25.3421L4.38796 25.5591C4.48364 25.1285 4.38223 24.6881 4.13763 24.3409L3.32012 24.9168Z" fill="black"/>
</svg>
