<svg width="32" height="32" viewBox="0 0 32 32" fill="none" xmlns="http://www.w3.org/2000/svg">
<path fill-rule="evenodd" clip-rule="evenodd" d="M16 31C24.2843 31 31 24.2843 31 16C31 7.71573 24.2843 1 16 1C7.71573 1 1 7.71573 1 16C1 19.2121 2.00964 22.1884 3.72887 24.6288C3.89716 24.8677 3.96325 25.1653 3.89986 25.4506L3.38313 27.7759C3.21451 28.5347 3.93814 29.1873 4.67555 28.9415L6.66426 28.2786C6.97153 28.1762 7.30812 28.2308 7.57597 28.4129C9.9773 30.0457 12.8772 31 16 31Z" fill="white"/>
<path d="M6.66426 28.2786L6.82237 28.7529L6.66426 28.2786ZM7.57597 28.4129L7.85712 27.9994L7.57597 28.4129ZM3.38313 27.7759L2.89504 27.6674L3.38313 27.7759ZM4.67555 28.9415L4.51744 28.4671L4.67555 28.9415ZM3.72887 24.6288L3.32011 24.9168L3.72887 24.6288ZM30.5 16C30.5 24.0081 24.0081 30.5 16 30.5V31.5C24.5604 31.5 31.5 24.5604 31.5 16H30.5ZM16 1.5C24.0081 1.5 30.5 7.99187 30.5 16H31.5C31.5 7.43959 24.5604 0.5 16 0.5V1.5ZM1.5 16C1.5 7.99187 7.99187 1.5 16 1.5V0.5C7.43959 0.5 0.5 7.43959 0.5 16H1.5ZM4.13762 24.3409C2.47582 21.982 1.5 19.1057 1.5 16H0.5C0.5 19.3185 1.54345 22.3948 3.32011 24.9168L4.13762 24.3409ZM3.87123 27.8843L4.38796 25.5591L3.41177 25.3421L2.89504 27.6674L3.87123 27.8843ZM6.50614 27.8042L4.51744 28.4671L4.83366 29.4158L6.82237 28.7529L6.50614 27.8042ZM16 30.5C12.9806 30.5 10.1782 29.5777 7.85712 27.9994L7.29482 28.8264C9.77644 30.5138 12.7738 31.5 16 31.5V30.5ZM6.82237 28.7529C6.97303 28.7027 7.14811 28.7266 7.29482 28.8264L7.85712 27.9994C7.46814 27.7349 6.97004 27.6496 6.50614 27.8042L6.82237 28.7529ZM2.89504 27.6674C2.64211 28.8056 3.72755 29.7845 4.83366 29.4158L4.51744 28.4671C4.14873 28.59 3.78692 28.2637 3.87123 27.8843L2.89504 27.6674ZM3.32011 24.9168C3.41209 25.0474 3.44287 25.2022 3.41177 25.3421L4.38796 25.5591C4.48363 25.1285 4.38222 24.6881 4.13762 24.3409L3.32011 24.9168Z" fill="black"/>
<g filter="url(#filter0_f_2_25)">
<ellipse cx="27" cy="19" rx="2" ry="1" fill="#FF8B72"/>
</g>
<g filter="url(#filter1_f_2_25)">
<ellipse cx="5" cy="19" rx="2" ry="1" fill="#FF8B72"/>
</g>
<path d="M6 12C6.5 11.3333 7.9 10.1 9.5 10.5" stroke="black" stroke-linecap="round"/>
<path d="M25.5 12C25 11.3333 23.6 10.1 22 10.5" stroke="black" stroke-linecap="round"/>
<path fill-rule="evenodd" clip-rule="evenodd" d="M6.29545 15.6893C6.47106 15.6141 6.88819 15.5274 7.4984 15.4648C7.99387 15.414 8.55637 15.3845 9.099 15.3769C9.03477 15.573 9.00003 15.7824 9.00003 16C9.00003 17.1046 9.89546 18 11 18C12.1046 18 13 17.1046 13 16C13 15.1616 12.4841 14.4436 11.7524 14.1463C11.5532 14.053 11.3168 14.0066 11.1311 13.9777C10.6736 13.9064 10.0351 13.875 9.37502 13.875C8.70777 13.875 7.98398 13.9071 7.34537 13.9726C6.73682 14.035 6.11229 14.1359 5.70457 14.3106C5.32385 14.4738 5.14748 14.9147 5.31065 15.2954C5.47382 15.6761 5.91473 15.8525 6.29545 15.6893Z" fill="black"/>
<path fill-rule="evenodd" clip-rule="evenodd" d="M19.0457 15.6893C19.2213 15.6141 19.6384 15.5274 20.2486 15.4648C20.7441 15.414 21.3066 15.3845 21.8492 15.3769C21.785 15.573 21.7503 15.7824 21.7503 16C21.7503 17.1046 22.6457 18 23.7503 18C24.8548 18 25.7503 17.1046 25.7503 16C25.7503 15.1616 25.2344 14.4437 24.5028 14.1464C24.3035 14.053 24.067 14.0067 23.8814 13.9777C23.4238 13.9064 22.7853 13.875 22.1253 13.875C21.458 13.875 20.7342 13.9071 20.0956 13.9726C19.4871 14.035 18.8625 14.1359 18.4548 14.3106C18.0741 14.4738 17.8977 14.9147 18.0609 15.2954C18.2241 15.6761 18.665 15.8525 19.0457 15.6893Z" fill="black"/>
<path d="M13.5 24C13.8333 23.3333 14.5 22 16 22C17.5 22 18.1667 23.3333 18.5 24" stroke="black" stroke-width="2" stroke-linecap="round"/>
<defs>
<filter id="filter0_f_2_25" x="24" y="17" width="6" height="4" filterUnits="userSpaceOnUse" color-interpolation-filters="sRGB">
<feFlood flood-opacity="0" result="BackgroundImageFix"/>
<feBlend mode="normal" in="SourceGraphic" in2="BackgroundImageFix" result="shape"/>
<feGaussianBlur stdDeviation="0.5" result="effect1_foregroundBlur_2_25"/>
</filter>
<filter id="filter1_f_2_25" x="2" y="17" width="6" height="4" filterUnits="userSpaceOnUse" color-interpolation-filters="sRGB">
<feFlood flood-opacity="0" result="BackgroundImageFix"/>
<feBlend mode="normal" in="SourceGraphic" in2="BackgroundImageFix" result="shape"/>
<feGaussianBlur stdDeviation="0.5" result="effect1_foregroundBlur_2_25"/>
</filter>
</defs>
</svg>
