<svg width="32" height="32" viewBox="0 0 32 32" fill="none" xmlns="http://www.w3.org/2000/svg">
<path fill-rule="evenodd" clip-rule="evenodd" d="M16 31C24.2843 31 31 24.2843 31 16C31 7.71573 24.2843 1 16 1C7.71573 1 1 7.71573 1 16C1 19.2121 2.00964 22.1884 3.72887 24.6289C3.89716 24.8677 3.96326 25.1653 3.89987 25.4506L3.38314 27.7759C3.21452 28.5347 3.93815 29.1873 4.67556 28.9415L6.66426 28.2786C6.97154 28.1762 7.30813 28.2308 7.57597 28.4129C9.9773 30.0457 12.8772 31 16 31Z" fill="white"/>
<path d="M6.66426 28.2786L6.50615 27.8042L6.66426 28.2786ZM7.57597 28.4129L7.85712 27.9994L7.57597 28.4129ZM4.67556 28.9415L4.83367 29.4158L4.67556 28.9415ZM3.72887 24.6289L4.13763 24.3409L3.72887 24.6289ZM3.89987 25.4506L4.38796 25.5591L3.89987 25.4506ZM30.5 16C30.5 24.0081 24.0081 30.5 16 30.5V31.5C24.5604 31.5 31.5 24.5604 31.5 16H30.5ZM16 1.5C24.0081 1.5 30.5 7.99187 30.5 16H31.5C31.5 7.43959 24.5604 0.5 16 0.5V1.5ZM1.5 16C1.5 7.99187 7.99187 1.5 16 1.5V0.5C7.43959 0.5 0.5 7.43959 0.5 16H1.5ZM4.13763 24.3409C2.47583 21.982 1.5 19.1057 1.5 16H0.5C0.5 19.3185 1.54345 22.3948 3.32012 24.9168L4.13763 24.3409ZM3.87123 27.8843L4.38796 25.5591L3.41177 25.3421L2.89505 27.6674L3.87123 27.8843ZM6.50615 27.8042L4.51744 28.4671L4.83367 29.4158L6.82237 28.7529L6.50615 27.8042ZM16 30.5C12.9806 30.5 10.1782 29.5777 7.85712 27.9994L7.29482 28.8264C9.77645 30.5138 12.7738 31.5 16 31.5V30.5ZM6.82237 28.7529C6.97303 28.7027 7.14811 28.7266 7.29482 28.8264L7.85712 27.9994C7.46814 27.7349 6.97004 27.6496 6.50615 27.8042L6.82237 28.7529ZM2.89505 27.6674C2.64212 28.8056 3.72756 29.7845 4.83367 29.4158L4.51744 28.4671C4.14874 28.59 3.78692 28.2637 3.87123 27.8843L2.89505 27.6674ZM3.32012 24.9168C3.4121 25.0474 3.44288 25.2022 3.41177 25.3421L4.38796 25.5591C4.48364 25.1285 4.38223 24.6881 4.13763 24.3409L3.32012 24.9168Z" fill="black"/>
<mask id="mask0_1_9" style="mask-type:alpha" maskUnits="userSpaceOnUse" x="1" y="1" width="30" height="30">
<path d="M30.5 16C30.5 24.0081 24.0081 30.5 16 30.5C7.99187 30.5 1.5 24.0081 1.5 16C1.5 7.99187 7.99187 1.5 16 1.5C24.0081 1.5 30.5 7.99187 30.5 16Z" fill="#C4C4C4"/>
</mask>
<g mask="url(#mask0_1_9)">
<path d="M7.24997 30.75V16.7207L10.75 16.2832V30.75H7.24997Z" fill="#95F6FC" stroke="black" stroke-width="0.5"/>
<path d="M24.75 16.7207V30.75H21.25V16.2832L24.75 16.7207Z" fill="#95F6FC" stroke="black" stroke-width="0.5"/>
</g>
<path d="M19.4652 9.42994C19.8434 10.1138 21.1148 11.4723 23.1748 11.4351" stroke="black" stroke-linecap="round"/>
<path d="M12.0486 9.42994C11.6704 10.1138 10.399 11.4723 8.33903 11.4351" stroke="black" stroke-linecap="round"/>
<path d="M19.1898 15.5485C19.7243 13.3458 24.5009 12.5001 25.5132 13.5572C25.6001 13.6479 25.5344 13.7819 25.413 13.8141C24.2083 14.1336 22.8797 14.8321 22.7014 15.3639C22.5472 15.8238 24.4204 16.5388 25.8006 17.1747C25.965 17.2505 25.944 17.4797 25.7672 17.5188C22.3867 18.2659 19.0198 16.2491 19.1898 15.5485Z" fill="black"/>
<path d="M13.1162 15.5485C12.5817 13.3458 7.80507 12.5001 6.79277 13.5572C6.7059 13.6479 6.7716 13.7819 6.893 13.8141C8.09771 14.1336 9.42628 14.8321 9.6046 15.3639C9.75879 15.8238 7.8856 16.5388 6.50542 17.1747C6.34099 17.2505 6.36201 17.4797 6.53879 17.5188C9.91928 18.2659 13.2862 16.2491 13.1162 15.5485Z" fill="black"/>
<ellipse cx="16.153" cy="24.1271" rx="3.0306" ry="3.67429" fill="black"/>
<path d="M16.153 20.9121C14.9408 20.9121 14.1326 21.8307 14.1326 22.29C14.1326 22.7493 15.1428 22.7493 16.153 22.7493C17.1632 22.7493 18.1734 22.7493 18.1734 22.29C18.1734 21.8307 17.3652 20.9121 16.153 20.9121Z" fill="white"/>
<path d="M16.153 27.3421C14.9408 27.3421 13.6275 25.9643 13.6275 25.0457C13.6275 24.1271 15.1428 24.1271 16.153 24.1271C17.1632 24.1271 18.6785 24.1271 18.6785 25.0457C18.6785 25.9643 17.3653 27.3421 16.153 27.3421Z" fill="#D50B00"/>
</svg>
