<svg width="235" height="32" viewBox="0 0 235 32" fill="none" xmlns="http://www.w3.org/2000/svg">
<path fill-rule="evenodd" clip-rule="evenodd" d="M16 31C24.2843 31 31 24.2843 31 16C31 7.71573 24.2843 1 16 1C7.71573 1 1 7.71573 1 16C1 19.2121 2.00964 22.1884 3.72887 24.6289C3.89716 24.8677 3.96326 25.1653 3.89987 25.4506L3.38314 27.7759C3.21452 28.5347 3.93815 29.1873 4.67556 28.9415L6.66426 28.2786C6.97154 28.1762 7.30813 28.2308 7.57597 28.4129C9.9773 30.0457 12.8772 31 16 31Z" fill="white"/>
<path d="M6.66426 28.2786L6.50615 27.8042L6.66426 28.2786ZM7.57597 28.4129L7.85712 27.9994L7.57597 28.4129ZM4.67556 28.9415L4.83367 29.4158L4.67556 28.9415ZM3.72887 24.6289L4.13763 24.3409L3.72887 24.6289ZM3.89987 25.4506L4.38796 25.5591L3.89987 25.4506ZM30.5 16C30.5 24.0081 24.0081 30.5 16 30.5V31.5C24.5604 31.5 31.5 24.5604 31.5 16H30.5ZM16 1.5C24.0081 1.5 30.5 7.99187 30.5 16H31.5C31.5 7.43959 24.5604 0.5 16 0.5V1.5ZM1.5 16C1.5 7.99187 7.99187 1.5 16 1.5V0.5C7.43959 0.5 0.5 7.43959 0.5 16H1.5ZM4.13763 24.3409C2.47583 21.982 1.5 19.1057 1.5 16H0.5C0.5 19.3185 1.54345 22.3948 3.32012 24.9168L4.13763 24.3409ZM3.87123 27.8843L4.38796 25.5591L3.41177 25.3421L2.89505 27.6674L3.87123 27.8843ZM6.50615 27.8042L4.51744 28.4671L4.83367 29.4158L6.82237 28.7529L6.50615 27.8042ZM16 30.5C12.9806 30.5 10.1782 29.5777 7.85712 27.9994L7.29482 28.8264C9.77645 30.5138 12.7738 31.5 16 31.5V30.5ZM6.82237 28.7529C6.97303 28.7027 7.14811 28.7266 7.29482 28.8264L7.85712 27.9994C7.46814 27.7349 6.97004 27.6496 6.50615 27.8042L6.82237 28.7529ZM2.89505 27.6674C2.64212 28.8056 3.72756 29.7845 4.83367 29.4158L4.51744 28.4671C4.14874 28.59 3.78692 28.2637 3.87123 27.8843L2.89505 27.6674ZM3.32012 24.9168C3.4121 25.0474 3.44288 25.2022 3.41177 25.3421L4.38796 25.5591C4.48364 25.1285 4.38223 24.6881 4.13763 24.3409L3.32012 24.9168Z" fill="black"/>
<mask id="mask0_2_84" style="mask-type:alpha" maskUnits="userSpaceOnUse" x="1" y="1" width="30" height="30">
<path d="M30.5 16C30.5 24.0081 24.0081 30.5 16 30.5C7.99187 30.5 1.5 24.0081 1.5 16C1.5 7.99187 7.99187 1.5 16 1.5C24.0081 1.5 30.5 7.99187 30.5 16Z" fill="#C4C4C4"/>
</mask>
<g mask="url(#mask0_2_84)">
<path d="M7.24997 30.75V16.7207L10.75 16.2832V30.75H7.24997Z" fill="#95F6FC" stroke="black" stroke-width="0.5"/>
<path d="M24.75 16.7207V30.75H21.25V16.2832L24.75 16.7207Z" fill="#95F6FC" stroke="black" stroke-width="0.5"/>
</g>
<path d="M19.4652 9.42994C19.8434 10.1138 21.1148 11.4723 23.1748 11.4351" stroke="black" stroke-linecap="round"/>
<path d="M12.0486 9.42994C11.6704 10.1138 10.399 11.4723 8.33903 11.4351" stroke="black" stroke-linecap="round"/>
<path d="M19.1898 15.5485C19.7243 13.3458 24.5009 12.5001 25.5132 13.5572C25.6001 13.6479 25.5344 13.7819 25.413 13.8141C24.2083 14.1336 22.8797 14.8321 22.7014 15.3639C22.5472 15.8238 24.4204 16.5388 25.8006 17.1747C25.965 17.2505 25.944 17.4797 25.7672 17.5188C22.3867 18.2659 19.0198 16.2491 19.1898 15.5485Z" fill="black"/>
<path d="M13.1162 15.5485C12.5817 13.3458 7.80507 12.5001 6.79277 13.5572C6.7059 13.6479 6.7716 13.7819 6.893 13.8141C8.09771 14.1336 9.42628 14.8321 9.6046 15.3639C9.75879 15.8238 7.8856 16.5388 6.50542 17.1747C6.34099 17.2505 6.36201 17.4797 6.53879 17.5188C9.91928 18.2659 13.2862 16.2491 13.1162 15.5485Z" fill="black"/>
<ellipse cx="16.153" cy="24.1271" rx="3.0306" ry="3.67429" fill="black"/>
<path d="M16.153 20.9121C14.9408 20.9121 14.1326 21.8307 14.1326 22.29C14.1326 22.7493 15.1428 22.7493 16.153 22.7493C17.1632 22.7493 18.1734 22.7493 18.1734 22.29C18.1734 21.8307 17.3652 20.9121 16.153 20.9121Z" fill="white"/>
<path d="M16.153 27.3421C14.9408 27.3421 13.6275 25.9643 13.6275 25.0457C13.6275 24.1271 15.1428 24.1271 16.153 24.1271C17.1632 24.1271 18.6785 24.1271 18.6785 25.0457C18.6785 25.9643 17.3653 27.3421 16.153 27.3421Z" fill="#D50B00"/>
<path fill-rule="evenodd" clip-rule="evenodd" d="M66 31C74.2843 31 81 24.2843 81 16C81 7.71573 74.2843 1 66 1C57.7157 1 51 7.71573 51 16C51 19.2121 52.0096 22.1884 53.7289 24.6288C53.8972 24.8677 53.9633 25.1653 53.8999 25.4506L53.3831 27.7759C53.2145 28.5347 53.9381 29.1873 54.6755 28.9415L56.6643 28.2786C56.9715 28.1762 57.3081 28.2308 57.576 28.4129C59.9773 30.0457 62.8772 31 66 31Z" fill="white"/>
<path d="M56.6643 28.2786L56.8224 28.7529L56.6643 28.2786ZM57.576 28.4129L57.8571 27.9994L57.576 28.4129ZM53.3831 27.7759L52.895 27.6674L53.3831 27.7759ZM54.6755 28.9415L54.5174 28.4671L54.6755 28.9415ZM53.7289 24.6288L53.3201 24.9168L53.7289 24.6288ZM80.5 16C80.5 24.0081 74.0081 30.5 66 30.5V31.5C74.5604 31.5 81.5 24.5604 81.5 16H80.5ZM66 1.5C74.0081 1.5 80.5 7.99187 80.5 16H81.5C81.5 7.43959 74.5604 0.5 66 0.5V1.5ZM51.5 16C51.5 7.99187 57.9919 1.5 66 1.5V0.5C57.4396 0.5 50.5 7.43959 50.5 16H51.5ZM54.1376 24.3409C52.4758 21.982 51.5 19.1057 51.5 16H50.5C50.5 19.3185 51.5434 22.3948 53.3201 24.9168L54.1376 24.3409ZM53.8712 27.8843L54.388 25.5591L53.4118 25.3421L52.895 27.6674L53.8712 27.8843ZM56.5061 27.8042L54.5174 28.4671L54.8337 29.4158L56.8224 28.7529L56.5061 27.8042ZM66 30.5C62.9806 30.5 60.1782 29.5777 57.8571 27.9994L57.2948 28.8264C59.7764 30.5138 62.7738 31.5 66 31.5V30.5ZM56.8224 28.7529C56.973 28.7027 57.1481 28.7266 57.2948 28.8264L57.8571 27.9994C57.4681 27.7349 56.97 27.6496 56.5061 27.8042L56.8224 28.7529ZM52.895 27.6674C52.6421 28.8056 53.7276 29.7845 54.8337 29.4158L54.5174 28.4671C54.1487 28.59 53.7869 28.2637 53.8712 27.8843L52.895 27.6674ZM53.3201 24.9168C53.4121 25.0474 53.4429 25.2022 53.4118 25.3421L54.388 25.5591C54.4836 25.1285 54.3822 24.6881 54.1376 24.3409L53.3201 24.9168Z" fill="black"/>
<g filter="url(#filter0_f_2_84)">
<ellipse cx="77" cy="19" rx="2" ry="1" fill="#FF8B72"/>
</g>
<g filter="url(#filter1_f_2_84)">
<ellipse cx="55" cy="19" rx="2" ry="1" fill="#FF8B72"/>
</g>
<path d="M56 12C56.5 11.3333 57.9 10.1 59.5 10.5" stroke="black" stroke-linecap="round"/>
<path d="M75.5 12C75 11.3333 73.6 10.1 72 10.5" stroke="black" stroke-linecap="round"/>
<path fill-rule="evenodd" clip-rule="evenodd" d="M56.2954 15.6893C56.4711 15.6141 56.8882 15.5274 57.4984 15.4648C57.9939 15.414 58.5564 15.3845 59.099 15.3769C59.0348 15.573 59 15.7824 59 16C59 17.1046 59.8955 18 61 18C62.1046 18 63 17.1046 63 16C63 15.1616 62.4841 14.4436 61.7524 14.1463C61.5532 14.053 61.3168 14.0066 61.1311 13.9777C60.6736 13.9064 60.0351 13.875 59.375 13.875C58.7078 13.875 57.984 13.9071 57.3454 13.9726C56.7368 14.035 56.1123 14.1359 55.7046 14.3106C55.3238 14.4738 55.1475 14.9147 55.3107 15.2954C55.4738 15.6761 55.9147 15.8525 56.2954 15.6893Z" fill="black"/>
<path fill-rule="evenodd" clip-rule="evenodd" d="M69.0457 15.6893C69.2213 15.6141 69.6384 15.5274 70.2486 15.4648C70.7441 15.414 71.3066 15.3845 71.8492 15.3769C71.785 15.573 71.7503 15.7824 71.7503 16C71.7503 17.1046 72.6457 18 73.7503 18C74.8548 18 75.7503 17.1046 75.7503 16C75.7503 15.1616 75.2344 14.4437 74.5028 14.1464C74.3035 14.053 74.067 14.0067 73.8814 13.9777C73.4238 13.9064 72.7853 13.875 72.1253 13.875C71.458 13.875 70.7342 13.9071 70.0956 13.9726C69.4871 14.035 68.8625 14.1359 68.4548 14.3106C68.0741 14.4738 67.8977 14.9147 68.0609 15.2954C68.2241 15.6761 68.665 15.8525 69.0457 15.6893Z" fill="black"/>
<path d="M63.5 24C63.8333 23.3333 64.5 22 66 22C67.5 22 68.1667 23.3333 68.5 24" stroke="black" stroke-width="2" stroke-linecap="round"/>
<path fill-rule="evenodd" clip-rule="evenodd" d="M116 31C124.284 31 131 24.2843 131 16C131 7.71573 124.284 1 116 1C107.716 1 101 7.71573 101 16C101 19.2121 102.01 22.1884 103.729 24.6289C103.897 24.8677 103.963 25.1653 103.9 25.4506L103.383 27.7759C103.215 28.5346 103.938 29.1873 104.676 28.9415L106.664 28.2786C106.972 28.1761 107.308 28.2308 107.576 28.4129C109.977 30.0457 112.877 31 116 31Z" fill="white"/>
<path d="M106.664 28.2786L106.506 27.8042L106.664 28.2786ZM107.576 28.4129L107.295 28.8264L107.576 28.4129ZM104.676 28.9415L104.517 28.4671L104.676 28.9415ZM103.729 24.6289L104.138 24.3409L103.729 24.6289ZM103.9 25.4506L103.412 25.3421L103.9 25.4506ZM130.5 16C130.5 24.0081 124.008 30.5 116 30.5V31.5C124.56 31.5 131.5 24.5604 131.5 16H130.5ZM116 1.5C124.008 1.5 130.5 7.99187 130.5 16H131.5C131.5 7.43959 124.56 0.5 116 0.5V1.5ZM101.5 16C101.5 7.99187 107.992 1.5 116 1.5V0.5C107.44 0.5 100.5 7.43959 100.5 16H101.5ZM104.138 24.3409C102.476 21.982 101.5 19.1057 101.5 16H100.5C100.5 19.3185 101.543 22.3948 103.32 24.9168L104.138 24.3409ZM103.871 27.8843L104.388 25.5591L103.412 25.3421L102.895 27.6674L103.871 27.8843ZM106.506 27.8042L104.517 28.4671L104.834 29.4158L106.822 28.7529L106.506 27.8042ZM116 30.5C112.981 30.5 110.178 29.5777 107.857 27.9994L107.295 28.8264C109.776 30.5138 112.774 31.5 116 31.5V30.5ZM106.822 28.7529C106.973 28.7027 107.148 28.7266 107.295 28.8264L107.857 27.9994C107.468 27.7349 106.97 27.6496 106.506 27.8042L106.822 28.7529ZM102.895 27.6674C102.642 28.8056 103.728 29.7845 104.834 29.4158L104.517 28.4671C104.149 28.59 103.787 28.2637 103.871 27.8843L102.895 27.6674ZM103.32 24.9168C103.412 25.0474 103.443 25.2022 103.412 25.3421L104.388 25.5591C104.484 25.1285 104.382 24.6881 104.138 24.3409L103.32 24.9168Z" fill="black"/>
<g filter="url(#filter2_f_2_84)">
<ellipse cx="127" cy="19" rx="2" ry="1" fill="#FF8B72"/>
</g>
<g filter="url(#filter3_f_2_84)">
<ellipse cx="105" cy="19" rx="2" ry="1" fill="#FF8B72"/>
</g>
<path d="M106 12C106.5 11.3333 107.9 10.1 109.5 10.5" stroke="black" stroke-linecap="round"/>
<path d="M125.5 12C125 11.3333 123.6 10.1 122 10.5" stroke="black" stroke-linecap="round"/>
<path fill-rule="evenodd" clip-rule="evenodd" d="M106.295 15.6893C106.471 15.6141 106.888 15.5274 107.498 15.4648C107.994 15.414 108.556 15.3845 109.099 15.3769C109.035 15.573 109 15.7824 109 16C109 17.1046 109.895 18 111 18C112.105 18 113 17.1046 113 16C113 15.1616 112.484 14.4437 111.752 14.1464C111.553 14.053 111.317 14.0067 111.131 13.9777C110.674 13.9064 110.035 13.875 109.375 13.875C108.708 13.875 107.984 13.9071 107.345 13.9726C106.737 14.035 106.112 14.1359 105.705 14.3106C105.324 14.4738 105.147 14.9147 105.311 15.2954C105.474 15.6761 105.915 15.8525 106.295 15.6893Z" fill="black"/>
<path fill-rule="evenodd" clip-rule="evenodd" d="M119.046 15.6893C119.221 15.6141 119.638 15.5274 120.249 15.4648C120.744 15.414 121.307 15.3845 121.849 15.3769C121.785 15.573 121.75 15.7824 121.75 16C121.75 17.1046 122.646 18 123.75 18C124.855 18 125.75 17.1046 125.75 16C125.75 15.1616 125.234 14.4437 124.503 14.1464C124.304 14.053 124.067 14.0067 123.881 13.9777C123.424 13.9064 122.785 13.875 122.125 13.875C121.458 13.875 120.734 13.9071 120.096 13.9726C119.487 14.035 118.863 14.1359 118.455 14.3106C118.074 14.4738 117.898 14.9147 118.061 15.2954C118.224 15.6761 118.665 15.8525 119.046 15.6893Z" fill="black"/>
<path d="M112 23C114.833 23.5 120.5 24 121.5 20.5" stroke="black" stroke-width="1.5" stroke-linecap="round"/>
<path fill-rule="evenodd" clip-rule="evenodd" d="M166 31C174.284 31 181 24.2843 181 16C181 7.71573 174.284 1 166 1C157.716 1 151 7.71573 151 16C151 19.2121 152.01 22.1884 153.729 24.6289C153.897 24.8677 153.963 25.1653 153.9 25.4506L153.383 27.7759C153.215 28.5346 153.938 29.1873 154.676 28.9415L156.664 28.2786C156.972 28.1762 157.308 28.2308 157.576 28.4129C159.977 30.0457 162.877 31 166 31Z" fill="white"/>
<path d="M156.664 28.2786L156.822 28.7529L156.664 28.2786ZM157.576 28.4129L157.295 28.8264L157.576 28.4129ZM154.676 28.9415L154.517 28.4671L154.676 28.9415ZM153.729 24.6289L154.138 24.3409L153.729 24.6289ZM153.9 25.4506L153.412 25.3421L153.9 25.4506ZM180.5 16C180.5 24.0081 174.008 30.5 166 30.5V31.5C174.56 31.5 181.5 24.5604 181.5 16H180.5ZM166 1.5C174.008 1.5 180.5 7.99187 180.5 16H181.5C181.5 7.43959 174.56 0.5 166 0.5V1.5ZM151.5 16C151.5 7.99187 157.992 1.5 166 1.5V0.5C157.44 0.5 150.5 7.43959 150.5 16H151.5ZM154.138 24.3409C152.476 21.982 151.5 19.1057 151.5 16H150.5C150.5 19.3185 151.543 22.3948 153.32 24.9168L154.138 24.3409ZM153.871 27.8843L154.388 25.5591L153.412 25.3421L152.895 27.6674L153.871 27.8843ZM156.506 27.8042L154.517 28.4671L154.834 29.4158L156.822 28.7529L156.506 27.8042ZM166 30.5C162.981 30.5 160.178 29.5777 157.857 27.9994L157.295 28.8264C159.776 30.5138 162.774 31.5 166 31.5V30.5ZM156.822 28.7529C156.973 28.7027 157.148 28.7266 157.295 28.8264L157.857 27.9994C157.468 27.7349 156.97 27.6496 156.506 27.8042L156.822 28.7529ZM152.895 27.6674C152.642 28.8056 153.728 29.7845 154.834 29.4158L154.517 28.4671C154.149 28.59 153.787 28.2637 153.871 27.8843L152.895 27.6674ZM153.32 24.9168C153.412 25.0474 153.443 25.2022 153.412 25.3421L154.388 25.5591C154.484 25.1285 154.382 24.6881 154.138 24.3409L153.32 24.9168Z" fill="black"/>
<path fill-rule="evenodd" clip-rule="evenodd" d="M217.725 31C225.919 31 232.56 24.2843 232.56 16C232.56 7.71573 225.919 1 217.725 1C209.532 1 202.891 7.71573 202.891 16C202.891 19.2131 203.89 22.1903 205.591 24.6312C205.757 24.8687 205.822 25.1635 205.76 25.4463L205.248 27.773C205.081 28.5326 205.807 29.1836 206.544 28.9352L208.483 28.282C208.792 28.1775 209.132 28.2331 209.402 28.4181C211.775 30.0478 214.64 31 217.725 31Z" fill="white"/>
<path d="M208.483 28.282L208.642 28.7558L208.483 28.282ZM209.402 28.4181L209.119 28.8303L209.402 28.4181ZM206.544 28.9352L206.385 28.4614L206.544 28.9352ZM205.591 24.6312L206.001 24.3453L205.591 24.6312ZM205.76 25.4463L205.271 25.339L205.76 25.4463ZM232.06 16C232.06 24.0134 225.637 30.5 217.725 30.5V31.5C226.2 31.5 233.06 24.5552 233.06 16H232.06ZM217.725 1.5C225.637 1.5 232.06 7.98664 232.06 16H233.06C233.06 7.44482 226.2 0.5 217.725 0.5V1.5ZM203.391 16C203.391 7.98664 209.814 1.5 217.725 1.5V0.5C209.251 0.5 202.391 7.44482 202.391 16H203.391ZM206.001 24.3453C204.357 21.9859 203.391 19.108 203.391 16H202.391C202.391 19.3183 203.423 22.3948 205.181 24.9171L206.001 24.3453ZM205.737 27.8803L206.248 25.5536L205.271 25.339L204.76 27.6656L205.737 27.8803ZM208.323 27.8081L206.385 28.4614L206.704 29.409L208.642 28.7558L208.323 27.8081ZM217.725 30.5C214.745 30.5 211.978 29.5804 209.685 28.006L209.119 28.8303C211.573 30.5151 214.536 31.5 217.725 31.5V30.5ZM208.642 28.7558C208.794 28.7046 208.971 28.7288 209.119 28.8303L209.685 28.006C209.294 27.7373 208.791 27.6505 208.323 27.8081L208.642 28.7558ZM204.76 27.6656C204.509 28.8051 205.598 29.7817 206.704 29.409L206.385 28.4614C206.016 28.5856 205.653 28.2601 205.737 27.8803L204.76 27.6656ZM205.181 24.9171C205.271 25.0469 205.302 25.2002 205.271 25.339L206.248 25.5536C206.342 25.1268 206.242 24.6906 206.001 24.3453L205.181 24.9171Z" fill="black"/>
<path d="M208.927 20.5232C208.089 19.1722 206.35 19.7665 205.501 20.5242C205.459 20.5616 205.395 20.5601 205.354 20.5223C204.713 19.9357 202.62 19.1678 201.775 21.0317C200.898 22.964 203.666 25.9029 205.601 26.2405C205.618 26.2435 205.635 26.2416 205.652 26.2353C208.142 25.2673 209.788 21.9106 208.927 20.5232Z" fill="#D50B00" stroke="black" stroke-width="0.5"/>
<g filter="url(#filter4_f_2_84)">
<ellipse cx="1.97941" cy="0.999289" rx="1.97941" ry="0.999289" transform="matrix(0.9663 -0.257416 0.252141 0.967691 205.945 17.019)" fill="#FF8B72"/>
</g>
<g filter="url(#filter5_f_2_84)">
<ellipse cx="1.97941" cy="0.999289" rx="1.97941" ry="0.999289" transform="matrix(-0.9663 -0.257416 -0.252141 0.967691 229.065 17.019)" fill="#FF8B72"/>
</g>
<path d="M207.923 10.0001C208.253 9.50007 209.307 8.60007 210.89 9.00007" stroke="black" stroke-linecap="round"/>
<path d="M226.714 10.0997C226.384 9.59968 225.329 8.69968 223.747 9.09968" stroke="black" stroke-linecap="round"/>
<path d="M208.417 13.5C209.242 15.3333 211.483 17.9 213.857 13.5" stroke="black" stroke-width="2" stroke-linecap="round"/>
<path d="M226.219 13.5C225.395 15.3333 223.153 17.9 220.78 13.5" stroke="black" stroke-width="2" stroke-linecap="round"/>
<path d="M212.373 22C213.857 23.8333 217.912 26.4 222.263 22" stroke="black" stroke-width="1.5" stroke-linecap="round"/>
<g filter="url(#filter6_f_2_84)">
<ellipse cx="175.5" cy="17" rx="1.5" ry="1" fill="#FF8B72"/>
</g>
<g filter="url(#filter7_f_2_84)">
<ellipse cx="156.5" cy="17" rx="1.5" ry="1" fill="#FF8B72"/>
</g>
<path d="M157.5 12.5H162.5" stroke="black" stroke-width="2" stroke-linecap="round"/>
<path d="M170 12.5H175" stroke="black" stroke-width="2" stroke-linecap="round"/>
<path d="M172.836 17.4805C173.809 18.9844 172.01 24 165.541 24C159.073 23.9999 157.274 18.4831 158.247 17.4805C159.219 16.4779 162.777 18 165.5 18C168.223 18 171.864 15.9767 172.836 17.4805Z" fill="black" stroke="black" stroke-linecap="round"/>
<mask id="mask1_2_84" style="mask-type:alpha" maskUnits="userSpaceOnUse" x="158" y="16" width="16" height="8">
<path d="M172.836 17.4805C173.809 18.9844 172.01 24 165.541 24C159.073 23.9999 157.274 18.4831 158.247 17.4805C159.219 16.4779 162.777 18 165.5 18C168.223 18 171.864 15.9767 172.836 17.4805Z" fill="black"/>
</mask>
<g mask="url(#mask1_2_84)">
<path d="M165.5 21.5C162.3 21.5 161.167 23.5 161 24.5H170C169.833 23.5 168.7 21.5 165.5 21.5Z" fill="#D50B00"/>
<path d="M165.63 20C155.328 20 158.272 17.3333 158.762 16H173.97C173.97 17.3333 174.951 20 165.63 20Z" fill="#F4F4F6"/>
</g>
<defs>
<filter id="filter0_f_2_84" x="74" y="17" width="6" height="4" filterUnits="userSpaceOnUse" color-interpolation-filters="sRGB">
<feFlood flood-opacity="0" result="BackgroundImageFix"/>
<feBlend mode="normal" in="SourceGraphic" in2="BackgroundImageFix" result="shape"/>
<feGaussianBlur stdDeviation="0.5" result="effect1_foregroundBlur_2_84"/>
</filter>
<filter id="filter1_f_2_84" x="52" y="17" width="6" height="4" filterUnits="userSpaceOnUse" color-interpolation-filters="sRGB">
<feFlood flood-opacity="0" result="BackgroundImageFix"/>
<feBlend mode="normal" in="SourceGraphic" in2="BackgroundImageFix" result="shape"/>
<feGaussianBlur stdDeviation="0.5" result="effect1_foregroundBlur_2_84"/>
</filter>
<filter id="filter2_f_2_84" x="124" y="17" width="6" height="4" filterUnits="userSpaceOnUse" color-interpolation-filters="sRGB">
<feFlood flood-opacity="0" result="BackgroundImageFix"/>
<feBlend mode="normal" in="SourceGraphic" in2="BackgroundImageFix" result="shape"/>
<feGaussianBlur stdDeviation="0.5" result="effect1_foregroundBlur_2_84"/>
</filter>
<filter id="filter3_f_2_84" x="102" y="17" width="6" height="4" filterUnits="userSpaceOnUse" color-interpolation-filters="sRGB">
<feFlood flood-opacity="0" result="BackgroundImageFix"/>
<feBlend mode="normal" in="SourceGraphic" in2="BackgroundImageFix" result="shape"/>
<feGaussianBlur stdDeviation="0.5" result="effect1_foregroundBlur_2_84"/>
</filter>
<filter id="filter4_f_2_84" x="205.18" y="15.3833" width="5.8589" height="4.18651" filterUnits="userSpaceOnUse" color-interpolation-filters="sRGB">
<feFlood flood-opacity="0" result="BackgroundImageFix"/>
<feBlend mode="normal" in="SourceGraphic" in2="BackgroundImageFix" result="shape"/>
<feGaussianBlur stdDeviation="0.5" result="effect1_foregroundBlur_2_84"/>
</filter>
<filter id="filter5_f_2_84" x="223.971" y="15.3833" width="5.8589" height="4.18651" filterUnits="userSpaceOnUse" color-interpolation-filters="sRGB">
<feFlood flood-opacity="0" result="BackgroundImageFix"/>
<feBlend mode="normal" in="SourceGraphic" in2="BackgroundImageFix" result="shape"/>
<feGaussianBlur stdDeviation="0.5" result="effect1_foregroundBlur_2_84"/>
</filter>
<filter id="filter6_f_2_84" x="173" y="15" width="5" height="4" filterUnits="userSpaceOnUse" color-interpolation-filters="sRGB">
<feFlood flood-opacity="0" result="BackgroundImageFix"/>
<feBlend mode="normal" in="SourceGraphic" in2="BackgroundImageFix" result="shape"/>
<feGaussianBlur stdDeviation="0.5" result="effect1_foregroundBlur_2_84"/>
</filter>
<filter id="filter7_f_2_84" x="154" y="15" width="5" height="4" filterUnits="userSpaceOnUse" color-interpolation-filters="sRGB">
<feFlood flood-opacity="0" result="BackgroundImageFix"/>
<feBlend mode="normal" in="SourceGraphic" in2="BackgroundImageFix" result="shape"/>
<feGaussianBlur stdDeviation="0.5" result="effect1_foregroundBlur_2_84"/>
</filter>
</defs>
</svg>
