<svg width="60" height="58" viewBox="0 0 60 58" fill="none" xmlns="http://www.w3.org/2000/svg">
<path d="M12.0249 7H47.9749" stroke="black" stroke-width="1.5" stroke-linecap="round" stroke-linejoin="round"/>
<path d="M12.0249 51.354H47.9749" stroke="black" stroke-width="1.5" stroke-linecap="round" stroke-linejoin="round"/>
<path d="M41.35 18.2924L33.65 25.6767C31.65 27.5947 28.3999 27.5947 26.3749 25.6767L18.6749 18.2924C17.6999 17.3573 17.1749 16.1106 17.1749 14.8159V11.9389C17.1749 9.20572 19.4749 7 22.3249 7H37.75C40.6 7 42.8999 9.20572 42.8999 11.9389V14.8159C42.8499 16.1106 42.3 17.3813 41.35 18.2924Z" stroke="black" stroke-width="2" stroke-linecap="round" stroke-linejoin="round"/>
<path d="M42.8499 46.415C42.8499 49.1482 40.5499 51.3539 37.6999 51.3539H22.2999C19.4499 51.3539 17.1499 49.1482 17.1499 46.415H42.8499Z" fill="black" stroke="black" stroke-width="1.5" stroke-linecap="round" stroke-linejoin="round"/>
<path d="M42.8499 43.5381V46.4152H17.1499V43.5381C17.1499 42.2435 17.6999 40.9728 18.6499 40.0617L26.3749 32.6534C28.3749 30.7353 31.6249 30.7353 33.6249 32.6534L41.3499 40.0617C42.2999 40.9728 42.8499 42.2435 42.8499 43.5381Z" stroke="black" stroke-width="1.5" stroke-linecap="round" stroke-linejoin="round"/>
<path d="M24.8499 24.2383H35.1498" stroke="black" stroke-width="3" stroke-linecap="round" stroke-linejoin="round"/>
<path d="M30 40.8292C29.5 40.8292 29.025 40.6374 28.675 40.3017C28.325 39.9661 28.125 39.5105 28.125 39.031C28.125 38.7913 28.175 38.5755 28.275 38.3358C28.375 38.12 28.5 37.9282 28.675 37.7603C29.175 37.2569 30.025 37.113 30.725 37.3767C30.95 37.4726 31.15 37.5925 31.325 37.7603C31.5 37.9282 31.625 38.12 31.725 38.3358C31.825 38.5755 31.875 38.7913 31.875 39.031C31.875 39.5105 31.675 39.9661 31.325 40.3017C30.975 40.6374 30.5 40.8292 30 40.8292Z" fill="black"/>
</svg>
