<svg width="64" height="64" viewBox="0 0 64 64" fill="none" xmlns="http://www.w3.org/2000/svg">
<path d="M11.375 54.5C12.8162 52.8859 19.5658 45.4584 21.5438 45.4584H42.4575C45.3238 45.4584 51.1749 51.6153 52.625 53.7856M62 32C62 48.5685 48.5685 62 32 62C15.4315 62 2 48.5685 2 32C2 15.4315 15.4315 2 32 2C48.5685 2 62 15.4315 62 32ZM42.7464 21.7749C42.7464 16.0514 37.9147 11.375 32.0009 11.375C26.0872 11.375 21.2554 16.0514 21.2554 21.7749C21.2554 27.4983 26.0872 32.1747 32.0009 32.1747C37.9146 32.1747 42.7464 27.4983 42.7464 21.7749Z" stroke="black" stroke-width="3"/>
</svg>
