<svg width="130" height="154" viewBox="0 0 130 154" fill="none" xmlns="http://www.w3.org/2000/svg">
<path d="M3.24305 39.9201C19.4806 42.7285 35.5937 48.96 50.4782 58.0915C65.4805 67.2716 79.2845 79.2279 90.8906 93.276C97.3971 101.135 103.22 109.666 108.081 118.686C109.555 121.406 113.258 119.525 111.784 116.806C102.645 100.096 90.6751 85.1483 76.9047 72.5246C63.2219 60.0732 47.6339 50.1067 31.3323 43.3207C22.1431 39.5338 12.7553 36.8232 3.24299 35.1513C0.469411 34.8258 0.499759 39.4709 3.24305 39.9201Z" fill="black"/>
<path d="M106.876 82.0146C111.814 95.2223 113.423 109.579 111.407 122.85C112.618 122.668 113.786 122.4 114.998 122.218C106.755 113.507 97.515 105.953 87.6155 100.034C86.5418 99.3867 85.2862 99.4824 84.7039 100.537C84.1519 101.468 84.4515 103.158 85.5253 103.805C95.0713 109.578 104.018 116.74 112.012 125.144C113.157 126.296 115.341 126.379 115.604 124.512C117.731 109.992 115.981 94.6233 110.534 80.048C110.114 78.8527 108.478 78.3829 107.589 78.8342C106.522 79.4845 106.411 80.7332 106.876 82.0146Z" fill="black"/>
</svg>
