<svg width="129" height="99" viewBox="0 0 129 99" fill="none" xmlns="http://www.w3.org/2000/svg">
<path d="M9.68506 96.8582C17.9569 81.0173 29.1384 66.9311 42.3804 55.5191C55.7068 44.0056 70.9977 35.0756 87.3025 29.4618C96.4288 26.3068 105.889 24.1931 115.425 23.3293C118.303 23.0594 118.014 18.2521 115.135 18.522C97.4216 20.2643 80.2099 25.8362 64.355 34.4142C48.6804 42.9813 34.4644 54.7414 22.7364 68.7641C16.1585 76.6869 10.4379 85.33 5.56908 94.5972C4.28925 97.3762 8.30931 99.5464 9.68506 96.8582Z" fill="black"/>
<path d="M83.3397 7.21725C96.5176 8.25697 109.488 13.362 120.216 21.7864C120.496 20.4186 120.685 19.0563 120.965 17.6885C110.477 22.2764 100.629 28.4663 91.9552 36.1293C91.0102 36.9582 90.6407 38.3314 91.341 39.4471C91.9455 40.4722 93.5123 40.9568 94.4573 40.1279C102.878 32.7696 112.282 26.703 122.414 22.233C123.821 21.5692 124.679 19.2982 123.162 18.1351C111.396 9.00129 97.5014 3.56597 82.9601 2.41537C81.7769 2.29364 80.7823 3.80097 80.8517 4.95472C81.0287 6.39149 82.0664 7.10095 83.3397 7.21725Z" fill="black"/>
</svg>
