<svg width="160" height="120" viewBox="0 0 160 120" fill="none" xmlns="http://www.w3.org/2000/svg">
<path d="M4.97288 65.7733C19.4526 59.0261 36.3963 54.9031 54.571 53.6149C72.8718 52.2988 92.3343 53.7087 111.684 57.8778C122.52 60.2027 133.337 63.4017 143.786 67.4902C146.943 68.718 148.36 65.2969 145.203 64.0691C125.744 56.5682 105.445 51.9256 85.5089 49.999C65.7688 48.1535 46.4336 49.2013 28.9317 53.0129C19.0945 55.1902 9.91055 58.2794 1.40807 62.2121C-0.949973 63.4797 2.54542 66.932 4.97288 65.7733Z" fill="black"/>
<path d="M115.454 40.761C129.092 47.9345 141.051 57.7792 149.434 68.7881C150.222 67.9922 150.912 67.1558 151.7 66.36C138.903 64.3449 126.211 63.7359 114.239 64.7079C112.936 64.8096 112.051 65.565 112.395 66.6696C112.67 67.6653 114.162 68.7644 115.464 68.6626C127.058 67.7745 139.233 68.2492 151.61 70.1707C153.345 70.4083 155.072 69.2802 153.876 67.7426C144.644 55.7409 131.822 45.2174 116.774 37.2995C115.56 36.636 113.961 37.1763 113.621 37.9973C113.293 39.0641 114.142 40.0571 115.454 40.761Z" fill="black"/>
</svg>
