<svg width="60" height="60" viewBox="0 0 60 60" fill="none" xmlns="http://www.w3.org/2000/svg">
<path fill-rule="evenodd" clip-rule="evenodd" d="M14.5004 23.0288C14.5004 14.9048 21.5433 8.49951 30.0004 8.49951C38.4575 8.49951 45.5004 14.9048 45.5004 23.0288C45.5004 30.6511 40.7747 39.5996 33.15 42.858C31.1483 43.7134 28.8525 43.7134 26.8508 42.858C19.2262 39.5996 14.5004 30.6511 14.5004 23.0288ZM30.0004 11.4995C22.9935 11.4995 17.5004 16.761 17.5004 23.0288C17.5004 29.6855 21.7113 37.3991 28.0297 40.0993C29.2784 40.6329 30.7224 40.6329 31.9711 40.0993C38.2896 37.3991 42.5004 29.6855 42.5004 23.0288C42.5004 16.761 37.0073 11.4995 30.0004 11.4995ZM30.0004 21.4995C28.6197 21.4995 27.5004 22.6188 27.5004 23.9995C27.5004 25.3802 28.6197 26.4995 30.0004 26.4995C31.3811 26.4995 32.5004 25.3802 32.5004 23.9995C32.5004 22.6188 31.3811 21.4995 30.0004 21.4995ZM24.5004 23.9995C24.5004 20.9619 26.9629 18.4995 30.0004 18.4995C33.038 18.4995 35.5004 20.9619 35.5004 23.9995C35.5004 27.0371 33.038 29.4995 30.0004 29.4995C26.9629 29.4995 24.5004 27.0371 24.5004 23.9995ZM13.1912 35.9927C13.7473 36.6068 13.7003 37.5553 13.0862 38.1114C11.9508 39.1395 11.5004 40.1236 11.5004 40.9995C11.5004 42.5269 12.9484 44.4092 16.4738 45.9956C19.8584 47.5187 24.6395 48.4995 30.0004 48.4995C35.3614 48.4995 40.1424 47.5187 43.527 45.9956C47.0524 44.4092 48.5004 42.5269 48.5004 40.9995C48.5004 40.1236 48.05 39.1395 46.9147 38.1114C46.3006 37.5553 46.2535 36.6068 46.8096 35.9927C47.3657 35.3786 48.3142 35.3316 48.9283 35.8876C50.4543 37.2694 51.5004 39.0017 51.5004 40.9995C51.5004 44.4427 48.4713 47.0604 44.7581 48.7314C40.9041 50.4656 35.6851 51.4995 30.0004 51.4995C24.3157 51.4995 19.0967 50.4656 15.2427 48.7314C11.5296 47.0604 8.50043 44.4427 8.50043 40.9995C8.50043 39.0017 9.54652 37.2694 11.0725 35.8876C11.6866 35.3316 12.6352 35.3786 13.1912 35.9927Z" fill="black"/>
</svg>
