<svg xmlns="http://www.w3.org/2000/svg" width="463" height="122" fill="none" xmlns:v="https://vecta.io/nano"><path d="M16.929 70.648c2.23-2.673 6.606-4.365 13.13-5.077 4.077-.445 7.542-.41 10.395.103s5.008 1.15 6.466 1.907c1.503.753 2.314 1.673 2.433 2.76.272 2.492-2.358 5.277-7.89 8.356-.816.502-2.99 1.587-6.521 3.256l-7.065 3.315c-2.65 1.344-4.396 2.359-5.238 3.047a.85.85 0 0 0 .339.582c.196.116.656.341 1.38.675l3.236 1.297c1.433.531 3.422 1.323 5.967 2.375 7.583 3.115 15.4 6.48 23.45 10.094.392.232.91.566 1.553 1 .638.388.99.877 1.054 1.466.059.544-.08.949-.418 1.215s-.751.471-1.239.616a5.91 5.91 0 0 1-1.541.375l-1.359.148c-.906.099-2.915-.667-6.027-2.299l-8.031-4.281a156.78 156.78 0 0 0-6.848-3.516c-5.48-2.749-9.77-4.458-12.869-5.129l1.698 15.562c.099.906-.622 1.443-2.162 1.611l-.747.082c-.951.104-1.706-.295-2.262-1.197-.792-1.381-1.401-4.019-1.826-7.915l-1.287-13.682c-.732-6.705-1.669-12.562-2.811-17.572.885-1.976 2.229-2.054 4.032-.234.412.413.748.766 1.009 1.059zm23.058-1.691l-4.425.414c-10.239 1.117-16 2.938-17.283 5.462-.384.684-.521 1.524-.413 2.521.104.951.241 1.785.41 2.5.429 1.833 1.096 3.112 2 3.839.141.031.37.028.687-.006.362-.04.987-.199 1.873-.479.932-.285 2.143-.738 3.634-1.359 1.531-.671 3.143-1.443 4.836-2.316s3.315-1.76 4.867-2.663c4.867-2.869 7.222-5.029 7.064-6.478-.089-.816-1.173-1.293-3.251-1.433zm23.444 28.317c-.079-.725-.256-1.714-.53-2.968l-.739-4.252c-.259-1.53-.474-3.088-.648-4.674s-.195-3.05-.067-4.394c.268-3.009 1.33-4.615 3.188-4.817 1.308.224 2.196.586 2.663 1.085.512.494.813 1.149.902 1.965.084.77-.013 1.766-.293 2.989-1.065 4.105-1.424 7.742-1.078 10.914.114 1.042.303 2.144.567 3.308 1.056 2.956 3.713 4.202 7.972 3.737 2.22-.242 4.285-.857 6.194-1.845 3.652-1.82 6.054-3.755 7.206-5.806.18-2.129.186-3.963.018-5.503-.173-1.586-.394-2.983-.664-4.191-.224-1.213-.506-2.535-.845-3.965-.299-1.48-.568-3.101-.806-4.863.559-.336 1.111-.534 1.654-.593.589-.064 1.21.166 1.863.691.698.52 1.341 1.573 1.926 3.159.631 1.582 1.136 3.475 1.514 5.68.373 2.16.688 4.418.945 6.773l.817 6.856c.237 2.175.533 4.045.887 5.61-.489.558-.983.864-1.481.919-1.812.197-3.346-1.469-4.603-4.999-.535.563-1.465 1.283-2.79 2.161-2.812 1.957-6.227 3.43-10.245 4.418a22.34 22.34 0 0 1-2.567.418c-.951.104-2.172.054-3.661-.151-1.444-.209-2.872-.901-4.284-2.076s-2.417-3.037-3.016-5.585zm61.542-12.629c-.588-5.391-1.315-9.323-2.181-11.796.288-.719-.292-1-1.742-.841-1.54.168-3.492.771-5.854 1.808s-4.272 2.025-5.728 2.963c-3.477 2.167-5.328 4.111-5.553 5.832l2.017 18.484-4.553.497c-.757-1.476-1.523-5.77-2.3-12.883-.692-6.343-1.088-11.021-1.188-14.036-.054-3.02-.036-4.741.055-5.163 1.094-.899 2.003-1.388 2.728-1.467 1.133-.124 1.845 1.151 2.137 3.824.113 1.042.157 2.069.129 3.08.014.961.04 1.623.08 1.986 6.751-6.192 12.142-9.508 16.174-9.948 4.576-.499 7.584 2.909 9.024 10.224.553 2.553 1.08 6.117 1.579 10.693l.518 5.376c.218 1.993.473 3.914.766 5.761-.423.321-.771.497-1.043.526-.14-.03-.442-.066-.905-.107s-1.06-.045-1.789-.011c-.651-1.763-1.101-3.57-1.349-5.423l-.638-5.225-.385-4.153zm37.737-22.822l-6.062.524c-1.586.173-3.404.532-5.453 1.076.102 1.777.171 4.084.205 6.923.136 10.071.368 16.601.694 19.591.321 2.945.594 5.024.818 6.237l-6.336 1.173-1.556-33.8-14.564.764c-.362.04-.689-.223-.98-.787-.245-.569-.395-1.103-.45-1.601s.091-1.064.434-1.698.787-.98 1.331-1.039c3.322-.225 6.676-.362 10.063-.41 6.266-.134 11.574-.438 15.923-.912l4.199-.596c3.297-.451 6.542-1.172 9.735-2.162.739.057 1.316 1.14 1.729 3.249.095.448.157.808.187 1.08-2.896 1.187-6.202 1.983-9.917 2.389zm15.824 18.972c-.584-5.346 1.257-9.902 5.522-13.668 3.388-2.983 7.635-5.028 12.74-6.135l1.903-.208c.996-.109 2.365.04 4.106.446 3.853.863 6.635 2.829 8.345 5.897.682 1.209 1.072 2.267 1.171 3.173.094.861.138 1.475.132 1.842.618 5.663-1.047 10.36-4.995 14.092-3.66 3.425-8.48 5.464-14.46 6.117-4.304.47-7.675-.171-10.112-1.922-2.393-1.756-3.843-4.967-4.352-9.634zm4.867 1.119c.306 2.809 1.261 4.63 2.865 5.464 1.212.601 3.154.756 5.827.464s5.006-.753 7.001-1.383 3.729-1.53 5.206-2.7c3.161-2.545 4.491-6.106 3.992-10.682-.297-2.718-1.264-4.859-2.901-6.422-1.789-1.684-3.974-2.386-6.556-2.104l-5.257 1.605c-1.728.555-3.327 1.44-4.799 2.655-3.201 2.596-4.994 6.963-5.378 13.102zm40.593-12.406c.032 1.555.204 3.76.515 6.614.306 2.809 1.11 6.182 2.411 10.121l-5.072 3.304-4.463-18.217c-1.611-.053-2.463-.511-2.557-1.371-.069-.634.212-1.421.843-2.361.676-.945 1.166-1.709 1.469-2.292.298-.629.433-1.285.404-1.969.011-.735-.014-2.016-.076-3.843a191.67 191.67 0 0 0-.29-5.813l-.291-5.813c-.062-1.827-.132-3.103-.211-3.828.888-1.105 1.546-1.796 1.974-2.072 1.069-.713 1.863-.57 2.385.427l1.928 21.451c11.19-1.221 17.839-2.68 19.946-4.377l-2.344-21.474c.188-.8 1.415-1.323 3.68-1.57a8.99 8.99 0 0 1 1.23-.066 171.34 171.34 0 0 0 .498 3.934c.279 1.712.562 3.675.849 5.89l1.044 7.038 1.035 6.97 1.452 10.156c.911 5.402 2.5 9.675 4.769 12.82-1.95 1.038-4.148 1.69-6.595 1.957-2.647-4.937-4.496-11.589-5.547-19.955l-6.13.531c-1.088.119-2.304.32-3.648.604-2.789.488-5.858 1.556-9.208 3.205zm48.869 9.246c3.987-.435 9.792-2.902 17.415-7.402a1.56 1.56 0 0 1 1.283.41 1.58 1.58 0 0 1 .601 1.103c-1.476 3.278-4.679 6.058-9.611 8.338s-9.679 3.096-14.242 2.448c-5.172-.765-8.539-3.263-10.101-7.493-.185-.851-.356-2.001-.514-3.451s-.004-3.392.464-5.827c.508-2.485 1.552-4.891 3.132-7.218s3.526-4.236 5.839-5.726a17.34 17.34 0 0 1 7.615-2.688c2.628-.287 5.671.298 9.131 1.754 1.634.693 2.964 1.533 3.988 2.522s1.599 2.049 1.723 3.182a6.96 6.96 0 0 1 .036.959c.211 2.773-.936 4.663-3.439 5.67-1.098.441-2.394.743-3.889.906l-9.83.66c-3.262.356-5.677 1.33-7.246 2.922-.912.879-1.489 2.111-1.728 3.696 1.582 3.999 4.707 5.744 9.373 5.235zm9.805-22.318c-1.076-.616-2.175-1.023-3.297-1.222s-2.045-.258-2.77-.179-1.875.457-3.452 1.133c-1.582.631-2.974 1.31-4.179 2.038-2.967 1.791-4.365 3.479-4.192 5.065 3.659-.078 6.395-.216 8.207-.414 5.029-.549 8.379-1.35 10.052-2.404 1.038-.572 1.52-1.197 1.446-1.877-.089-.816-.694-1.529-1.815-2.14zm39.974 10.285c-2.814 5.717-6.984 9.518-12.508 11.405-1.284.415-2.47.682-3.557.801l-2.651.289c-.684.029-1.467 0-2.347-.088s-1.706-.295-2.475-.624c-1.78-.768-2.764-2.014-2.952-3.735-.27-.796-.46-1.692-.568-2.689-.114-1.042-.036-2.426.234-4.151s.888-3.627 1.853-5.703a27.75 27.75 0 0 1 3.832-5.85c3.203-3.834 6.834-6.476 10.894-7.928 1.193-.405 2.288-.662 3.285-.771 1.042-.114 1.978-.147 2.808-.1 2.628-.287 4.59 1.31 5.887 4.79.836 2.201 1.522 5.335 2.057 9.403l1.363 9.341c.374 2.16.886 4.121 1.536 5.884l-4.009.438c-.315-1.203-.569-2.276-.764-3.217l-.561-2.621c-.434-1.878-.886-3.502-1.357-4.872zm-1.421-10.504c-.287-2.628-1.721-3.801-4.303-3.519a6.76 6.76 0 0 0-.959.036c-3.307.361-6.623 2.327-9.946 5.899a23.89 23.89 0 0 0-3.884 5.375c-1.53 2.78-2.184 5.189-1.961 7.228.291 2.673 2.005 4.09 5.14 4.253 4.067-.536 7.761-2.818 11.08-6.848 1.413-1.759 2.539-3.623 3.378-5.595 1.178-2.65 1.663-4.926 1.455-6.829zm9.697-5.665l-.984-6.494-.671-4.259c-.104-.951-.716-3.2-1.836-6.745l.985-1.689c.353-.543.892-.854 1.617-.933 1.585-.173 3.538 6.376 5.857 19.647a401.28 401.28 0 0 1 3.216 23.167c.227 2.084-1.109 3.284-4.008 3.6l-.552-.009c-.257-2.356-.653-5.361-1.19-9.016l-1.385-9.545-1.049-7.725zm22.144 17.663l-1.05-10.888c-.188-1.722-.507-3.177-.958-4.365l-10.533 1.149-.648-4.674 10.194-1.112-1.914-17.533c.092-.423.319-.86.682-1.312.565-.704 1.052-1.078 1.46-1.122.453-.049.843-.046 1.17.01s.701.336 1.123.84c1.051 2.911 1.905 7.379 2.563 13.405a47.57 47.57 0 0 0 .686 4.395c1.43-.339 2.869-.588 4.319-.746l3.534-.386c.861-.094 1.649-.226 2.363-.395l.331 4.915-9.952.811 2.898 23.408c-.776.451-1.458.709-2.047.773-2.265.247-3.672-2.144-4.221-7.172zm50.42.137c-.324.815-1.346 1.316-3.068 1.504-1.676.183-2.581-.337-2.715-1.56-.583-5.346-1.097-9.003-1.541-10.972-.887-4.35-2.005-6.612-3.353-6.786-3.331-.278-6.039-.304-8.123-.076-2.038.222-3.668 1.042-4.889 2.459-1.18 1.367-1.975 3.539-2.383 6.518-.368 2.928-.427 7.015-.175 12.259l-5.233.571c-.191-2.592-.408-4.998-.65-7.218s-.574-4.843-.996-7.868l-1.437-10.02c-.682-4.143-1.178-7.642-1.489-10.496-.317-2.899-.425-5.569-.324-8.01.359-.91.969-1.412 1.83-1.506 1.042-.114 1.899.182 2.572.888.668.661 1.057 1.283 1.166 1.867l.884 11.25c.46 4.213 1.007 7.34 1.643 9.379 3.78-3.163 7.845-4.982 12.194-5.457a31.98 31.98 0 0 1 4.523-.15c3.59 1.396 6.015 3.034 7.275 4.914.612.988 1.05 2.063 1.314 3.226s.501 2.49.71 3.98c.835 5.135 1.59 8.903 2.265 11.305z" fill="#000"/><g stroke="#000" stroke-width="2"><g stroke-linejoin="round"><path d="M437.393 35.563a4.51 4.51 0 0 0-.892-3.382 4.7 4.7 0 0 0-3.067-1.785" stroke-linecap="round"/><path d="M418.973 32.94c.514-3.59 2.462-6.825 5.416-8.994s6.672-3.095 10.336-2.573 6.974 2.448 9.201 5.355 3.19 6.557 2.677 10.146c-1.605 11.211-9.09 19.421-16.72 18.334s-12.514-11.058-10.91-22.268z"/><path d="M429.882 55.208l-.322 2.256c-.172 1.197-.821 2.275-1.806 2.998s-2.224 1.032-3.445.858l-6.907-.984a4.7 4.7 0 0 0-3.445.858c-.985.723-1.635 1.801-1.806 2.998" stroke-linecap="round"/></g><path d="M461.79 43.252c0 16.714-14.024 30.32-31.395 30.32S399 59.966 399 43.252s14.024-30.32 31.395-30.32 31.395 13.606 31.395 30.32z"/></g></svg>