<svg width="30" height="30" viewBox="0 0 30 30" fill="none" xmlns="http://www.w3.org/2000/svg">
<path d="M23.9873 6.06268H26.5623" stroke="black" stroke-width="1.5" stroke-linecap="round" stroke-linejoin="round"/>
<path d="M3.4375 6.06268H18.85" stroke="black" stroke-width="1.5" stroke-linecap="round" stroke-linejoin="round"/>
<path d="M21.4251 8.61251C22.8473 8.61251 24.0001 7.47084 24.0001 6.06251C24.0001 4.65419 22.8473 3.51251 21.4251 3.51251C20.003 3.51251 18.8501 4.65419 18.8501 6.06251C18.8501 7.47084 20.003 8.61251 21.4251 8.61251Z" fill="black" stroke="black" stroke-width="1.5" stroke-linecap="round" stroke-linejoin="round"/>
<path d="M23.9873 23.9376H26.5623" stroke="black" stroke-width="1.5" stroke-linecap="round" stroke-linejoin="round"/>
<path d="M3.4375 23.9376H18.85" stroke="black" stroke-width="1.5" stroke-linecap="round" stroke-linejoin="round"/>
<path d="M21.4251 26.4877C22.8473 26.4877 24.0001 25.346 24.0001 23.9377C24.0001 22.5294 22.8473 21.3877 21.4251 21.3877C20.003 21.3877 18.8501 22.5294 18.8501 23.9377C18.8501 25.346 20.003 26.4877 21.4251 26.4877Z" fill="black" stroke="black" stroke-width="1.5" stroke-linecap="round" stroke-linejoin="round"/>
<path d="M11.1499 15.0001H26.5624" stroke="black" stroke-width="1.5" stroke-linecap="round" stroke-linejoin="round"/>
<path d="M3.4375 15.0001H6.0125" stroke="black" stroke-width="1.5" stroke-linecap="round" stroke-linejoin="round"/>
<path d="M8.575 17.5502C9.99713 17.5502 11.15 16.4085 11.15 15.0002C11.15 13.5919 9.99713 12.4502 8.575 12.4502C7.15286 12.4502 6 13.5919 6 15.0002C6 16.4085 7.15286 17.5502 8.575 17.5502Z" fill="black" stroke="black" stroke-width="1.5" stroke-linecap="round" stroke-linejoin="round"/>
</svg>
