<svg width="56" height="70" viewBox="0 0 56 70" fill="none" xmlns="http://www.w3.org/2000/svg">
<path fill-rule="evenodd" clip-rule="evenodd" d="M30.0291 4.92687C29.3457 4.24345 28.2376 4.24345 27.5542 4.92687L24.5227 7.95843H13.75C13.3358 7.95843 13 8.29421 13 8.70843V22.9584C13 23.1573 13.079 23.3481 13.2197 23.4888L21.928 32.1971C22.8332 33.1023 23.8485 33.5473 24.8339 33.5791C25.814 33.6107 26.7057 33.23 27.3428 32.5929C27.8541 32.0817 28.2002 31.4064 28.3007 30.6531L29.053 31.4054C29.9582 32.3106 30.9735 32.7557 31.9589 32.7875C32.939 32.8191 33.8307 32.4383 34.4678 31.8013C34.9792 31.2899 35.3253 30.6146 35.4258 29.8611C36.321 30.7401 37.3211 31.1728 38.2922 31.2041C39.2723 31.2357 40.1641 30.855 40.8012 30.2179C41.4382 29.5808 41.819 28.6891 41.7874 27.709C41.7556 26.7236 41.3105 25.7083 40.4053 24.8031L39.3107 23.7084H42.25C42.6642 23.7084 43 23.3726 43 22.9584V8.70843C43 8.29421 42.6642 7.95843 42.25 7.95843H33.0607L30.0291 4.92687ZM37.8107 22.2084H41.5V9.45843H32.75C32.5511 9.45843 32.3603 9.37941 32.2197 9.23876L28.9684 5.98753C28.8708 5.8899 28.7125 5.8899 28.6149 5.98753L25.3642 9.23825C25.364 9.23842 25.3638 9.23859 25.3637 9.23876L20.3523 14.2501L21.5412 15.4389C22.4849 16.3827 24.0151 16.3827 24.9588 15.4389L27.4697 12.9281C27.7626 12.6352 28.2374 12.6352 28.5303 12.9281L37.8107 22.2084ZM26.8298 30.1323C26.8121 29.5839 26.5645 28.9169 25.8863 28.2388L23.5113 25.8638C23.2184 25.5709 23.2184 25.096 23.5113 24.8031C23.8042 24.5102 24.2791 24.5102 24.572 24.8031L26.947 27.1781L30.1137 30.3448C30.7918 31.0229 31.4588 31.2705 32.0073 31.2882C32.561 31.3061 33.0547 31.0931 33.4072 30.7406C33.7597 30.3881 33.9727 29.8944 33.9548 29.3407C33.9371 28.7922 33.6895 28.1252 33.0113 27.4471L27.4697 21.9054C27.1768 21.6125 27.1768 21.1377 27.4697 20.8448C27.7626 20.5519 28.2374 20.5519 28.5303 20.8448L34.072 26.3864L36.447 28.7614C37.1251 29.4396 37.7921 29.6872 38.3406 29.7049C38.8943 29.7228 39.388 29.5098 39.7405 29.1573C40.093 28.8048 40.306 28.3111 40.2882 27.7573C40.2705 27.2089 40.0228 26.5419 39.3447 25.8638L28 14.5191L26.0195 16.4996C24.4899 18.0291 22.0101 18.0291 20.4805 16.4996L18.7613 14.7804C18.4684 14.4875 18.4684 14.0127 18.7613 13.7198L23.0227 9.45843H14.5V22.6478L22.9887 31.1364C23.6668 31.8146 24.3338 32.0622 24.8823 32.0799C25.436 32.0978 25.9297 31.8848 26.2822 31.5323C26.6347 31.1798 26.8477 30.6861 26.8298 30.1323Z" fill="#262626"/>
<path d="M4.72867 58.64C4.27867 59 3.77367 59.18 3.21367 59.18C2.62367 59.18 2.16367 59.005 1.83367 58.655C1.51367 58.305 1.35367 57.835 1.35367 57.245V52.13H0.288672V51.095H1.35367V49.31L2.67367 49.145V51.095H4.20367L4.06867 52.13H2.67367V57.26C2.67367 57.81 2.90867 58.085 3.37867 58.085C3.53867 58.085 3.67867 58.065 3.79867 58.025C3.91867 57.985 4.05867 57.915 4.21867 57.815L4.72867 58.64ZM8.84863 50.93C9.06863 50.93 9.26863 50.96 9.44863 51.02L9.22363 52.295C9.02363 52.245 8.84363 52.22 8.68363 52.22C8.29363 52.22 7.97363 52.395 7.72363 52.745C7.47363 53.095 7.27863 53.63 7.13863 54.35V59H5.81863V51.095H6.95863L7.06363 52.565C7.43363 51.475 8.02863 50.93 8.84863 50.93ZM14.7732 57.32C14.7732 57.6 14.8132 57.81 14.8932 57.95C14.9732 58.08 15.1032 58.185 15.2832 58.265L14.9982 59.18C14.6282 59.12 14.3332 59.005 14.1132 58.835C13.9032 58.655 13.7532 58.39 13.6632 58.04C13.2332 58.8 12.6032 59.18 11.7732 59.18C11.1232 59.18 10.6032 58.965 10.2132 58.535C9.83316 58.095 9.64316 57.515 9.64316 56.795C9.64316 55.955 9.90316 55.315 10.4232 54.875C10.9432 54.425 11.6982 54.2 12.6882 54.2H13.4682V53.48C13.4682 52.96 13.3632 52.58 13.1532 52.34C12.9532 52.1 12.6382 51.98 12.2082 51.98C11.6982 51.98 11.1032 52.115 10.4232 52.385L10.0932 51.455C10.9032 51.105 11.6632 50.93 12.3732 50.93C13.1832 50.93 13.7832 51.15 14.1732 51.59C14.5732 52.02 14.7732 52.63 14.7732 53.42V57.32ZM12.0432 58.19C12.6632 58.19 13.1382 57.77 13.4682 56.93V55.085H12.8382C12.2082 55.085 11.7432 55.22 11.4432 55.49C11.1532 55.76 11.0082 56.175 11.0082 56.735C11.0082 57.215 11.0982 57.58 11.2782 57.83C11.4582 58.07 11.7132 58.19 12.0432 58.19ZM20.2057 50.93C20.7757 50.93 21.2307 51.135 21.5707 51.545C21.9107 51.955 22.0807 52.505 22.0807 53.195V59H20.7607V53.375C20.7607 52.865 20.6857 52.505 20.5357 52.295C20.3957 52.075 20.1807 51.965 19.8907 51.965C19.3207 51.965 18.7907 52.455 18.3007 53.435V59H16.9807V51.095H18.1207L18.2257 52.28C18.4857 51.84 18.7707 51.505 19.0807 51.275C19.3907 51.045 19.7657 50.93 20.2057 50.93ZM26.1371 50.93C27.0071 50.93 27.7521 51.225 28.3721 51.815L27.8021 52.58C27.5221 52.37 27.2521 52.215 26.9921 52.115C26.7321 52.005 26.4571 51.95 26.1671 51.95C25.8171 51.95 25.5371 52.05 25.3271 52.25C25.1271 52.44 25.0271 52.705 25.0271 53.045C25.0271 53.375 25.1271 53.635 25.3271 53.825C25.5271 54.015 25.9071 54.21 26.4671 54.41C27.1871 54.67 27.7171 54.98 28.0571 55.34C28.3971 55.7 28.5671 56.19 28.5671 56.81C28.5671 57.56 28.3121 58.145 27.8021 58.565C27.3021 58.975 26.6771 59.18 25.9271 59.18C24.9271 59.18 24.0921 58.835 23.4221 58.145L24.1121 57.41C24.6721 57.9 25.2671 58.145 25.8971 58.145C26.2971 58.145 26.6171 58.035 26.8571 57.815C27.0971 57.595 27.2171 57.285 27.2171 56.885C27.2171 56.615 27.1721 56.395 27.0821 56.225C26.9921 56.055 26.8371 55.9 26.6171 55.76C26.3971 55.62 26.0771 55.475 25.6571 55.325C24.9571 55.065 24.4571 54.76 24.1571 54.41C23.8571 54.05 23.7071 53.61 23.7071 53.09C23.7071 52.69 23.8071 52.325 24.0071 51.995C24.2171 51.665 24.5071 51.405 24.8771 51.215C25.2471 51.025 25.6671 50.93 26.1371 50.93ZM31.4857 59.18C31.0457 59.18 30.6907 59.04 30.4207 58.76C30.1607 58.48 30.0307 58.1 30.0307 57.62V47.915L31.3507 47.765V57.59C31.3507 57.92 31.4907 58.085 31.7707 58.085C31.9007 58.085 32.0257 58.06 32.1457 58.01L32.4457 58.91C32.1557 59.09 31.8357 59.18 31.4857 59.18ZM38.2546 57.32C38.2546 57.6 38.2946 57.81 38.3746 57.95C38.4546 58.08 38.5846 58.185 38.7646 58.265L38.4796 59.18C38.1096 59.12 37.8146 59.005 37.5946 58.835C37.3846 58.655 37.2346 58.39 37.1446 58.04C36.7146 58.8 36.0846 59.18 35.2546 59.18C34.6046 59.18 34.0846 58.965 33.6946 58.535C33.3146 58.095 33.1246 57.515 33.1246 56.795C33.1246 55.955 33.3846 55.315 33.9046 54.875C34.4246 54.425 35.1796 54.2 36.1696 54.2H36.9496V53.48C36.9496 52.96 36.8446 52.58 36.6346 52.34C36.4346 52.1 36.1196 51.98 35.6896 51.98C35.1796 51.98 34.5846 52.115 33.9046 52.385L33.5746 51.455C34.3846 51.105 35.1446 50.93 35.8546 50.93C36.6646 50.93 37.2646 51.15 37.6546 51.59C38.0546 52.02 38.2546 52.63 38.2546 53.42V57.32ZM35.5246 58.19C36.1446 58.19 36.6196 57.77 36.9496 56.93V55.085H36.3196C35.6896 55.085 35.2246 55.22 34.9246 55.49C34.6346 55.76 34.4896 56.175 34.4896 56.735C34.4896 57.215 34.5796 57.58 34.7596 57.83C34.9396 58.07 35.1946 58.19 35.5246 58.19ZM43.9572 58.64C43.5072 59 43.0022 59.18 42.4422 59.18C41.8522 59.18 41.3922 59.005 41.0622 58.655C40.7422 58.305 40.5822 57.835 40.5822 57.245V52.13H39.5172V51.095H40.5822V49.31L41.9022 49.145V51.095H43.4322L43.2972 52.13H41.9022V57.26C41.9022 57.81 42.1372 58.085 42.6072 58.085C42.7672 58.085 42.9072 58.065 43.0272 58.025C43.1472 57.985 43.2872 57.915 43.4472 57.815L43.9572 58.64ZM47.3774 50.93C48.3174 50.93 49.0424 51.28 49.5524 51.98C50.0724 52.67 50.3324 53.69 50.3324 55.04C50.3324 56.31 50.0674 57.32 49.5374 58.07C49.0174 58.81 48.2924 59.18 47.3624 59.18C46.4324 59.18 45.7074 58.815 45.1874 58.085C44.6674 57.355 44.4074 56.345 44.4074 55.055C44.4074 53.725 44.6674 52.705 45.1874 51.995C45.7074 51.285 46.4374 50.93 47.3774 50.93ZM47.3774 51.995C46.8474 51.995 46.4524 52.235 46.1924 52.715C45.9324 53.185 45.8024 53.965 45.8024 55.055C45.8024 56.135 45.9324 56.915 46.1924 57.395C46.4524 57.875 46.8424 58.115 47.3624 58.115C47.8924 58.115 48.2874 57.875 48.5474 57.395C48.8074 56.915 48.9374 56.13 48.9374 55.04C48.9374 53.96 48.8074 53.185 48.5474 52.715C48.2874 52.235 47.8974 51.995 47.3774 51.995ZM55.1377 50.93C55.3577 50.93 55.5577 50.96 55.7377 51.02L55.5127 52.295C55.3127 52.245 55.1327 52.22 54.9727 52.22C54.5827 52.22 54.2627 52.395 54.0127 52.745C53.7627 53.095 53.5677 53.63 53.4277 54.35V59H52.1077V51.095H53.2477L53.3527 52.565C53.7227 51.475 54.3177 50.93 55.1377 50.93Z" fill="black"/>
</svg>
