<svg width="60" height="60" viewBox="0 0 60 60" fill="none" xmlns="http://www.w3.org/2000/svg">
<path d="M33 21.2843L24.1421 12.4264C20.9069 9.1912 15.6616 9.1912 12.4264 12.4264C9.1912 15.6616 9.1912 20.9069 12.4264 24.1421L35.8579 47.5736C39.0931 50.8088 44.3384 50.8088 47.5736 47.5736C50.8088 44.3384 50.8088 39.0931 47.5736 35.8579L38.8579 27.1421" stroke="black" stroke-width="3" stroke-linecap="round"/>
<path d="M30.0004 41.7157L24.1425 47.5736C20.9073 50.8088 15.662 50.8088 12.4268 47.5736C11.9428 47.0896 11.5312 46.5606 11.192 46M18.2847 30L12.4268 35.8579C11.782 36.5027 11.2657 37.2273 10.8779 38M30.0004 18.2843L35.8583 12.4264C39.0935 9.1912 44.3388 9.1912 47.574 12.4264C50.8092 15.6616 50.8092 20.9069 47.574 24.1421L41.7161 30" stroke="black" stroke-width="3" stroke-linecap="round"/>
<path d="M37.6828 31.7428C38.2979 32.3579 38.2979 33.3552 37.6828 33.9703C37.0677 34.5854 36.0704 34.5854 35.4553 33.9703C34.8402 33.3552 34.8402 32.3579 35.4553 31.7428C36.0704 31.1277 37.0677 31.1277 37.6828 31.7428Z" fill="black"/>
<path d="M30.2579 24.3179C29.6428 23.7028 28.6455 23.7028 28.0304 24.3179C27.4153 24.933 27.4153 25.9303 28.0304 26.5454C28.6455 27.1605 29.6428 27.1605 30.2579 26.5454C30.873 25.9303 30.873 24.933 30.2579 24.3179Z" fill="black"/>
<path d="M39.539 37.3115C40.1541 37.9266 40.1541 38.9239 39.539 39.539C38.9239 40.1541 37.9266 40.1541 37.3115 39.539C36.6964 38.9239 36.6964 37.9266 37.3115 37.3115C37.9266 36.6964 38.9239 36.6964 39.539 37.3115Z" fill="black"/>
<path d="M24.6892 22.4617C24.0741 21.8466 23.0768 21.8466 22.4617 22.4617C21.8466 23.0768 21.8466 24.0741 22.4617 24.6892C23.0768 25.3043 24.0741 25.3043 24.6892 24.6892C25.3043 24.0741 25.3043 23.0768 24.6892 22.4617Z" fill="black"/>
<path d="M32.1141 29.8866C32.7292 30.5017 32.7292 31.499 32.1141 32.1141C31.499 32.7292 30.5017 32.7292 29.8866 32.1141C29.2715 31.499 29.2715 30.5017 29.8866 29.8866C30.5017 29.2715 31.499 29.2715 32.1141 29.8866Z" fill="black"/>
<path d="M33.9703 35.4553C34.5854 36.0704 34.5854 37.0677 33.9703 37.6828C33.3552 38.2979 32.3579 38.2979 31.7428 37.6828C31.1277 37.0677 31.1277 36.0704 31.7428 35.4553C32.3579 34.8402 33.3552 34.8402 33.9703 35.4553Z" fill="black"/>
<path d="M26.5454 28.0304C25.9303 27.4153 24.933 27.4153 24.3179 28.0304C23.7028 28.6455 23.7028 29.6428 24.3179 30.2579C24.933 30.873 25.9303 30.873 26.5454 30.2579C27.1605 29.6428 27.1605 28.6455 26.5454 28.0304Z" fill="black"/>
</svg>
