<svg width="155" height="85" viewBox="0 0 155 85" fill="none" xmlns="http://www.w3.org/2000/svg">
<path d="M48.6291 11.2674C50.0222 11.58 51.0995 12.1354 51.861 12.9334C52.6231 13.7114 52.9858 14.8802 52.9494 16.4398C52.904 18.3793 52.2301 19.8239 50.9275 20.7737C49.645 21.724 47.894 22.1732 45.6746 22.1213L41.0559 22.0134L41.539 1.349L45.4679 1.44084C47.7473 1.49413 49.4863 1.9849 50.6849 2.91317C51.8835 3.84144 52.4632 5.14534 52.424 6.82488C52.3964 8.00456 52.0438 8.96658 51.3662 9.71095C50.7086 10.4558 49.7963 10.9746 48.6291 11.2674ZM44.2177 3.57221L44.0628 10.2004L45.8323 10.2418C47.072 10.2707 48.0082 10.0126 48.6412 9.4672C49.2746 8.90185 49.6041 8.06932 49.6298 6.96962C49.6574 5.78994 49.3471 4.94246 48.699 4.42717C48.0708 3.91235 47.0669 3.63881 45.6873 3.60656L44.2177 3.57221ZM45.7258 19.9319C47.1254 19.9646 48.1914 19.7195 48.9239 19.1965C49.6767 18.6539 50.0689 17.7128 50.1002 16.3732C50.1324 14.9936 49.8057 13.9956 49.1199 13.3795C48.4545 12.7437 47.4121 12.4093 45.9925 12.3761L44.013 12.3298L43.8363 19.8878L45.7258 19.9319ZM63.149 13.9775C65.4418 14.3112 66.5614 15.6277 66.5076 17.9271C66.4716 19.4666 65.9444 20.6246 64.926 21.401C63.9081 22.1575 62.5493 22.5158 60.8498 22.4761L55.9911 22.3625L56.3571 6.70677C58.324 6.43266 59.8274 6.30776 60.8671 6.33207C62.4866 6.36993 63.7574 6.77974 64.6794 7.5615C65.6014 8.34326 66.0469 9.39396 66.0161 10.7136C65.9964 11.5534 65.7704 12.2383 65.3379 12.7683C64.9054 13.2983 64.1757 13.7014 63.149 13.9775ZM60.8194 8.37151C60.3795 8.36123 59.7588 8.38673 58.9571 8.44801L58.8484 13.0967L60.9479 13.1458C62.5474 13.1832 63.3661 12.3921 63.404 10.7726C63.4232 9.95279 63.217 9.35781 62.7855 8.98763C62.3745 8.59792 61.7192 8.39254 60.8194 8.37151ZM60.8974 20.4366C61.7972 20.4577 62.4917 20.2738 62.9809 19.8852C63.4901 19.497 63.7562 18.813 63.7791 17.8333C63.8034 16.7935 63.58 16.0781 63.1091 15.687C62.6581 15.2964 61.9827 15.0905 61.0829 15.0695L58.8036 15.0162L58.6781 20.3847L60.8974 20.4366ZM80.2383 14.557C80.228 14.9969 80.1972 15.4563 80.146 15.9353L71.8683 15.7417C71.9039 17.6431 72.1825 18.99 72.7041 19.7824C73.2457 20.5753 74.0264 20.9836 75.0461 21.0075C75.7059 21.0229 76.2981 20.9367 76.8226 20.7489C77.3476 20.5411 77.8954 20.2138 78.466 19.767L79.5985 21.3839C78.2495 22.6128 76.6852 23.2064 74.9056 23.1648C73.0262 23.1208 71.5827 22.3969 70.5752 20.993C69.5682 19.569 69.0953 17.5474 69.1566 14.9281C69.2178 12.3089 69.7556 10.2709 70.7699 8.81418C71.8047 7.33796 73.2218 6.62089 75.0213 6.66295C76.7609 6.70362 78.0751 7.39452 78.964 8.73566C79.8733 10.0573 80.2981 11.9977 80.2383 14.557ZM77.7072 13.7177C77.7474 11.9981 77.5467 10.7431 77.105 9.95255C76.6634 9.16201 75.9527 8.75529 74.973 8.73239C74.0932 8.71182 73.394 9.09559 72.8755 9.88368C72.3574 10.6518 72.0368 11.9546 71.9139 13.7923L77.7023 13.9276L77.7072 13.7177ZM93.8687 21.1174L93.7145 27.7156L91.735 27.6693L91.4496 23.1914L83.3218 23.0014L82.8275 27.4611L80.848 27.4148L81.0023 20.8166L81.902 20.8376C82.2894 20.5266 82.5975 20.1837 82.8263 19.809C83.0556 19.4142 83.2607 18.7688 83.4417 17.8728C83.6427 16.9773 83.8128 15.6909 83.9521 14.0137L84.5011 7.21465L92.8688 7.41027L92.5491 21.0865L93.8687 21.1174ZM90.2397 9.47939L86.7907 9.39876L86.4491 13.742C86.3127 15.2992 86.1539 16.5258 85.973 17.4218C85.7924 18.2979 85.5561 18.9925 85.2641 19.5058C84.9725 19.9992 84.5716 20.4599 84.0614 20.8881L89.9698 21.0262L90.2397 9.47939ZM107.461 23.5657L104.912 23.5061L105.086 16.0682C105.137 13.8887 105.349 12.1032 105.721 10.7115L99.9933 23.3911L97.0541 23.3224L97.4236 7.51674L99.9729 7.57634L99.7997 14.9843C99.7497 17.1237 99.5481 18.8995 99.195 20.3116L104.862 7.69062L107.831 7.76003L107.461 23.5657ZM8.91386 51.2702L9.07792 44.2521L4.09928 44.1357L3.93522 51.1538L1.29594 51.0921L1.66543 35.2864L4.30471 35.3481L4.14906 42.0063L9.1277 42.1227L9.28335 35.4645L11.9226 35.5262L11.5531 51.3319L8.91386 51.2702ZM25.1364 48.2885C25.1233 48.8483 25.1935 49.2701 25.3469 49.5537C25.5008 49.8174 25.7558 50.0334 26.112 50.2018L25.4993 52.018C24.7624 51.8807 24.1779 51.637 23.746 51.2868C23.3345 50.9171 23.047 50.3802 22.8834 49.6762C21.9881 51.1757 20.7107 51.906 19.0511 51.8672C17.7515 51.8369 16.7218 51.3827 15.9621 50.5047C15.2229 49.6072 14.8701 48.4386 14.9038 46.999C14.943 45.3194 15.4928 44.0519 16.5531 43.1965C17.6138 42.321 19.1339 41.9065 21.1134 41.9527L22.673 41.9892L22.7066 40.5496C22.7309 39.5099 22.5387 38.7452 22.1301 38.2555C21.7414 37.7663 21.1172 37.5116 20.2574 37.4915C19.2377 37.4677 18.0417 37.7098 16.6695 38.2178L16.0531 36.3429C17.689 35.681 19.2168 35.3666 20.6364 35.3998C22.256 35.4376 23.4453 35.9056 24.2046 36.8036C24.9842 37.682 25.3556 38.911 25.3187 40.4906L25.1364 48.2885ZM19.6372 49.9004C20.8769 49.9294 21.8463 49.1118 22.5454 47.4477L22.6316 43.7587L21.3719 43.7293C20.1123 43.6998 19.1762 43.948 18.5638 44.4738C17.9713 45.0001 17.662 45.8231 17.6358 46.9428C17.6134 47.9026 17.7763 48.6366 18.1245 49.1448C18.4732 49.6331 18.9774 49.885 19.6372 49.9004ZM37.0298 51.9274L37.3488 38.2812L32.4301 38.1662L32.1111 51.8124L29.4718 51.7507L29.8413 35.9451L40.0385 36.1834L39.6691 51.9891L37.0298 51.9274ZM50.8232 36.1055C52.3627 36.1415 53.5158 36.8786 54.2824 38.3169C55.0495 39.7352 55.4019 41.774 55.3398 44.4333C55.2795 47.0126 54.7921 49.0318 53.8778 50.4908C52.9639 51.9298 51.6872 52.6302 50.0476 52.5918C48.688 52.5601 47.5819 51.954 46.7292 50.7738L46.556 58.1818L43.9091 58.45L44.4272 36.286L46.7366 36.34L46.8374 38.443C47.875 36.8468 49.2036 36.0676 50.8232 36.1055ZM49.5283 50.4191C50.468 50.4411 51.189 49.9778 51.6914 49.0293C52.2141 48.0612 52.5005 46.5075 52.5505 44.3681C52.6015 42.1887 52.428 40.6242 52.0301 39.6746C51.6326 38.7051 50.984 38.2098 50.0843 38.1888C48.9446 38.1621 47.9069 38.9081 46.9711 40.4266L46.7818 48.5244C47.5131 49.7618 48.4286 50.3934 49.5283 50.4191ZM67.6053 49.2813C67.5922 49.8411 67.6624 50.2629 67.8158 50.5465C67.9696 50.8102 68.2247 51.0262 68.5808 51.1946L67.9682 53.0108C67.2312 52.8735 66.6468 52.6298 66.2148 52.2796C65.8034 51.9099 65.5158 51.373 65.3522 50.669C64.4569 52.1685 63.1795 52.8988 61.52 52.86C60.2203 52.8297 59.1907 52.3755 58.431 51.4975C57.6918 50.6 57.339 49.4314 57.3726 47.9918C57.4119 46.3122 57.9617 45.0447 59.0219 44.1893C60.0827 43.3138 61.6028 42.8993 63.5822 42.9455L65.1418 42.982L65.1755 41.5424C65.1998 40.5027 65.0076 39.738 64.5989 39.2483C64.2103 38.7591 63.586 38.5044 62.7263 38.4843C61.7066 38.4605 60.5106 38.7026 59.1383 39.2106L58.522 37.3357C60.1579 36.6738 61.6857 36.3594 63.1053 36.3926C64.7248 36.4304 65.9142 36.8984 66.6734 37.7964C67.4531 38.6748 67.8245 39.9038 67.7876 41.4834L67.6053 49.2813ZM62.1061 50.8932C63.3458 50.9222 64.3151 50.1046 65.0142 48.4405L65.1005 44.7515L63.8408 44.7221C62.5811 44.6926 61.6451 44.9408 61.0326 45.4666C60.4402 45.9929 60.1309 46.8159 60.1047 47.9356C60.0822 48.8954 60.2451 49.6294 60.5933 50.1376C60.942 50.6259 61.4463 50.8778 62.1061 50.8932ZM79.0986 44.3585C81.3914 44.6922 82.511 46.0087 82.4572 48.3081C82.4212 49.8477 81.894 51.0057 80.8756 51.7821C79.8577 52.5385 78.4989 52.8969 76.7994 52.8571L71.9407 52.7435L72.3067 37.0878C74.2736 36.8137 75.777 36.6888 76.8167 36.7131C78.4362 36.751 79.707 37.1608 80.629 37.9426C81.551 38.7243 81.9965 39.775 81.9657 41.0947C81.9461 41.9344 81.72 42.6193 81.2875 43.1494C80.855 43.6794 80.1254 44.0825 79.0986 44.3585ZM76.769 38.7526C76.3291 38.7423 75.7084 38.7678 74.9067 38.8291L74.798 43.4778L76.8975 43.5269C78.497 43.5643 79.3157 42.7732 79.3536 41.1536C79.3728 40.3338 79.1666 39.7389 78.7351 39.3687C78.3241 38.979 77.6688 38.7736 76.769 38.7526ZM76.8471 50.8177C77.7468 50.8387 78.4413 50.6549 78.9305 50.2662C79.4397 49.878 79.7058 49.1941 79.7287 48.2143C79.753 47.1746 79.5296 46.4592 79.0587 46.0681C78.6077 45.6774 77.9323 45.4716 77.0325 45.4506L74.7532 45.3973L74.6277 50.7658L76.8471 50.8177ZM95.794 37.4868L95.4245 53.2925L92.7852 53.2308L93.1043 39.5846L89.4153 39.4983L89.4446 39.529L88.8055 46.3259C88.6444 48.0826 88.4441 49.3783 88.2045 50.2129C87.9849 51.048 87.6298 51.6899 87.1392 52.1386C86.6686 52.5877 85.9185 53.0103 84.889 53.4063L84.2775 51.3215C84.803 51.0937 85.1897 50.8127 85.4376 50.4784C85.6859 50.1241 85.8671 49.6482 85.9811 49.0507C86.0955 48.4332 86.2094 47.4156 86.3225 45.9978L87.0964 37.2835L95.794 37.4868ZM110.217 45.2661C110.207 45.7059 110.176 46.1653 110.125 46.6443L101.847 46.4508C101.883 48.3521 102.161 49.699 102.683 50.4914C103.225 51.2843 104.005 51.6926 105.025 51.7165C105.685 51.7319 106.277 51.6457 106.802 51.4579C107.327 51.2501 107.874 50.9228 108.445 50.4761L109.578 52.093C108.228 53.3218 106.664 53.9154 104.885 53.8738C103.005 53.8298 101.562 53.1059 100.554 51.702C99.5472 50.2781 99.0743 48.2564 99.1355 45.6372C99.1968 43.0179 99.7345 40.9799 100.749 39.5232C101.784 38.047 103.201 37.3299 105 37.372C106.74 37.4126 108.054 38.1035 108.943 39.4447C109.852 40.7663 110.277 42.7068 110.217 45.2661ZM107.686 44.4267C107.726 42.7071 107.526 41.4521 107.084 40.6616C106.642 39.871 105.932 39.4643 104.952 39.4414C104.072 39.4208 103.373 39.8046 102.854 40.5927C102.336 41.3608 102.016 42.6637 101.893 44.5013L107.681 44.6366L107.686 44.4267ZM121.032 53.8911L121.196 46.8731L116.217 46.7567L116.053 53.7748L113.414 53.7131L113.783 37.9074L116.423 37.9691L116.267 44.6273L121.246 44.7436L121.401 38.0855L124.04 38.1472L123.671 53.9528L121.032 53.8911ZM138.465 54.2987L135.916 54.2391L136.09 46.8011C136.141 44.6217 136.353 42.8362 136.725 41.4445L130.997 54.1241L128.058 54.0554L128.428 38.2497L130.977 38.3093L130.804 45.7173C130.754 47.8567 130.552 49.6325 130.199 51.0446L135.866 38.4236L138.835 38.493L138.465 54.2987ZM153.272 46.2725C153.262 46.7124 153.231 47.1718 153.18 47.6508L144.902 47.4573C144.937 49.3586 145.216 50.7055 145.738 51.4979C146.279 52.2908 147.06 52.6991 148.08 52.723C148.74 52.7384 149.332 52.6522 149.856 52.4644C150.381 52.2566 150.929 51.9293 151.5 51.4825L152.632 53.0995C151.283 54.3283 149.719 54.9219 147.939 54.8803C146.06 54.8363 144.616 54.1124 143.609 52.7085C142.602 51.2845 142.129 49.2629 142.19 46.6437C142.251 44.0244 142.789 41.9864 143.804 40.5297C144.838 39.0535 146.255 38.3364 148.055 38.3785C149.794 38.4191 151.109 39.11 151.998 40.4512C152.907 41.7728 153.332 43.7132 153.272 46.2725ZM150.741 45.4332C150.781 43.7136 150.58 42.4586 150.139 41.6681C149.697 40.8775 148.986 40.4708 148.007 40.4479C147.127 40.4273 146.428 40.8111 145.909 41.5992C145.391 42.3673 145.07 43.6702 144.947 45.5078L150.736 45.6431L150.741 45.4332ZM39.2537 66.1733L38.8842 81.979L36.2449 81.9173L36.5639 68.271L32.8749 68.1848L32.9042 68.2155L32.2652 75.0124C32.1041 76.7691 31.9037 78.0648 31.6642 78.8994C31.4446 79.7345 31.0895 80.3764 30.5989 80.825C30.1282 81.2742 29.3782 81.6967 28.3486 82.0928L27.7372 80.0079C28.2626 79.7801 28.6493 79.4991 28.8972 79.1648C29.1456 78.8105 29.3267 78.3346 29.4407 77.7371C29.5552 77.1196 29.669 76.102 29.7822 74.6843L30.556 65.97L39.2537 66.1733ZM53.6769 73.9525C53.6666 74.3924 53.6359 74.8518 53.5846 75.3307L45.3069 75.1372C45.3425 77.0386 45.6211 78.3854 46.1427 79.1778C46.6843 79.9707 47.465 80.3791 48.4847 80.4029C49.1445 80.4183 49.7367 80.3322 50.2612 80.1444C50.7862 79.9366 51.334 79.6093 51.9046 79.1625L53.0372 80.7794C51.6881 82.0082 50.1238 82.6018 48.3443 82.5602C46.4648 82.5163 45.0213 81.7924 44.0138 80.3884C43.0068 78.9645 42.534 76.9429 42.5952 74.3236C42.6564 71.7043 43.1942 69.6663 44.2085 68.2096C45.2433 66.7334 46.6604 66.0164 48.4599 66.0584C50.1995 66.0991 51.5137 66.79 52.4026 68.1311C53.3119 69.4527 53.7367 71.3932 53.6769 73.9525ZM51.1458 73.1131C51.186 71.3936 50.9853 70.1386 50.5436 69.348C50.102 68.5575 49.3913 68.1508 48.4116 68.1279C47.5318 68.1073 46.8327 68.4911 46.3141 69.2791C45.796 70.0473 45.4755 71.3501 45.3525 73.1877L51.1409 73.3231L51.1458 73.1131ZM66.4804 66.8098L66.1109 82.6155L63.4716 82.5538L63.6279 75.8656C62.5602 77.041 61.3065 77.6118 59.8669 77.5782C58.6672 77.5501 57.7261 77.158 57.0436 76.4019C56.3816 75.6262 56.066 74.5785 56.0968 73.2589L56.2532 66.5707L58.8924 66.6324L58.7396 73.1706C58.7209 73.9704 58.8573 74.5537 59.1488 74.9206C59.4603 75.288 59.946 75.4794 60.6058 75.4949C61.1456 75.5075 61.699 75.3704 62.2658 75.0835C62.8532 74.7772 63.3229 74.368 63.6749 73.8561L63.8411 66.7481L66.4804 66.8098ZM80.9155 74.5893C80.9053 75.0291 80.8745 75.4885 80.8233 75.9675L72.5456 75.774C72.5811 77.6753 72.8597 79.0222 73.3814 79.8146C73.923 80.6075 74.7036 81.0158 75.7234 81.0397C76.3832 81.0551 76.9754 80.9689 77.4999 80.7811C78.0249 80.5733 78.5727 80.2461 79.1433 79.7993L80.2758 81.4162C78.9267 82.645 77.3624 83.2386 75.5829 83.197C73.7034 83.153 72.2599 82.4291 71.2525 81.0252C70.2455 79.6013 69.7726 77.5797 69.8338 74.9604C69.8951 72.3411 70.4328 70.3031 71.4472 68.8464C72.4819 67.3702 73.8991 66.6531 75.6986 66.6952C77.4381 66.7358 78.7523 67.4267 79.6412 68.7679C80.5506 70.0895 80.9754 72.03 80.9155 74.5893ZM78.3845 73.7499C78.4247 72.0303 78.2239 70.7753 77.7823 69.9848C77.3406 69.1942 76.63 68.7875 75.6502 68.7646C74.7705 68.744 74.0713 69.1278 73.5527 69.9159C73.0346 70.684 72.7141 71.9869 72.5911 73.8245L78.3796 73.9598L78.3845 73.7499ZM91.73 83.2144L91.894 76.1963L86.9154 76.0799L86.7513 83.098L84.112 83.0363L84.4815 67.2306L87.1208 67.2923L86.9652 73.9505L91.9438 74.0669L92.0995 67.4087L94.7387 67.4704L94.3692 83.2761L91.73 83.2144ZM109.164 83.6219L106.614 83.5623L106.788 76.1243C106.839 73.9449 107.051 72.1594 107.424 70.7677L101.696 83.4473L98.7565 83.3786L99.126 67.5729L101.675 67.6325L101.502 75.0405C101.452 77.1799 101.251 78.9557 100.897 80.3678L106.564 67.7468L109.533 67.8162L109.164 83.6219ZM123.214 68.136L122.845 83.9417L120.206 83.88L120.349 77.7617L117.709 77.7L114.837 83.7545L112.108 83.6907L115.417 76.9262C114.627 76.4876 114.05 75.934 113.685 75.2653C113.341 74.5771 113.181 73.7331 113.204 72.7334C113.24 71.1938 113.758 70.0156 114.757 69.1987C115.757 68.3818 117.186 67.9951 119.045 68.0386L123.214 68.136ZM120.396 75.7523L120.527 70.1438L118.967 70.1073C117.927 70.083 117.163 70.2752 116.673 70.6839C116.203 71.093 115.957 71.7974 115.933 72.7972C115.91 73.7969 116.113 74.5318 116.542 75.002C116.992 75.4526 117.726 75.6899 118.746 75.7137L120.396 75.7523Z" fill="black"/>
</svg>
