<svg width="89" height="67" viewBox="0 0 89 67" fill="none" xmlns="http://www.w3.org/2000/svg">
<path d="M9.31508 12.0447C10.7085 12.3557 11.7865 12.9097 12.549 13.7068C13.312 14.484 13.6762 15.6523 13.6416 17.2119C13.5986 19.1515 12.9264 20.5969 11.625 21.5483C10.3435 22.5001 8.5931 22.9514 6.37365 22.9022L1.75478 22.7998L2.21304 2.13485L6.14208 2.22198C8.42152 2.27253 10.1611 2.76122 11.3609 3.68804C12.5606 4.61487 13.1419 5.91808 13.1046 7.59766C13.0784 8.77737 12.727 9.73982 12.0503 10.485C11.3936 11.2306 10.4819 11.7505 9.31508 12.0447ZM4.89448 4.35485L4.7475 10.9832L6.51706 11.0225C7.75676 11.0499 8.69273 10.7906 9.325 10.2445C9.9577 9.67841 10.2863 8.84549 10.3106 7.74576C10.3368 6.56605 10.0255 5.71894 9.37675 5.20443C8.74799 4.69036 7.74378 4.41803 6.36412 4.38744L4.89448 4.35485ZM6.4222 20.7127C7.82186 20.7438 8.88758 20.4973 9.61938 19.9734C10.3716 19.43 10.7626 18.4884 10.7923 17.1487C10.8229 15.7691 10.4949 14.7716 9.80839 14.1562C9.14231 13.5213 8.09944 13.1881 6.67979 13.1566L4.70027 13.1127L4.53267 20.6708L6.4222 20.7127ZM20.5863 12.5347C22.6858 12.5813 24.1852 13.0747 25.0846 14.0148C26.004 14.9555 26.445 16.2656 26.4078 17.9451C26.3679 19.7447 25.8281 21.0831 24.7884 21.9602C23.7686 22.8378 22.449 23.2587 20.8294 23.2228L16.6904 23.131L17.0409 7.32487L19.6803 7.3834L19.5665 12.5121L20.5863 12.5347ZM28.3481 7.57561L30.9875 7.63414L30.637 23.4403L27.9976 23.3817L28.3481 7.57561ZM20.6054 21.1473C21.6051 21.1695 22.3505 20.9359 22.8414 20.4467C23.3524 19.9579 23.6214 19.1037 23.6484 17.884C23.6733 16.7642 23.4615 15.9393 23.0132 15.4093C22.5648 14.8792 21.7808 14.6017 20.661 14.5769L19.5213 14.5516L19.3757 21.12L20.6054 21.1473ZM41.3222 8.88357C42.7818 8.91594 43.9376 9.57172 44.7894 10.8509C45.6617 12.1106 46.0719 13.9101 46.02 16.2495C45.9606 18.9289 45.3966 20.9069 44.3281 22.1835C43.2799 23.4406 41.8461 24.0489 40.0265 24.0086C36.1275 23.9221 34.2449 20.8596 34.3788 14.8211C34.4316 12.4417 34.6239 10.5355 34.9558 9.10248C35.2881 7.64949 35.8239 6.49108 36.5632 5.62726C37.303 4.74345 38.3494 4.01647 39.7023 3.44632C40.7323 3.00905 41.5101 2.66621 42.0357 2.4178C42.5618 2.1494 43.139 1.83212 43.7672 1.46595L44.8984 3.23147C44.0044 3.8518 42.6683 4.56235 40.8901 5.36313C40.0215 5.74396 39.3523 6.14923 38.8827 6.57892C38.4135 6.98862 38.0303 7.58027 37.733 8.35387C37.4558 9.12791 37.2519 10.2037 37.1213 11.5811C38.1023 9.7424 39.5026 8.84322 41.3222 8.88357ZM40.0738 21.8791C40.7136 21.8933 41.2466 21.7651 41.6727 21.4944C42.1188 21.2243 42.4809 20.6822 42.759 19.8681C43.0376 19.0341 43.1941 17.8373 43.2287 16.2777C43.2713 14.3581 43.0813 13.0036 42.6587 12.214C42.2361 11.4245 41.5849 11.0199 40.7051 11.0004C40.0053 10.9849 39.3497 11.2304 38.7383 11.737C38.1269 12.2436 37.6097 13.0123 37.1868 14.0432L37.1469 15.8427C37.0586 19.8217 38.0343 21.8339 40.0738 21.8791ZM59.7907 15.7147C59.781 16.1546 59.7508 16.614 59.7002 17.093L51.4222 16.9095C51.46 18.8108 51.7403 20.1573 52.2628 20.9491C52.8054 21.7413 53.5866 22.1487 54.6063 22.1714C55.2662 22.186 55.8582 22.0991 56.3825 21.9107C56.9073 21.7022 57.4547 21.3743 58.0247 20.9268L59.1592 22.5424C57.8116 23.7728 56.248 24.3683 54.4685 24.3288C52.5889 24.2871 51.1446 23.5649 50.1354 22.1622C49.1267 20.7395 48.6514 18.7185 48.7095 16.0991C48.7676 13.4798 49.3029 11.4411 50.3155 9.98322C51.3485 8.50576 52.7648 7.78699 54.5643 7.82689C56.3039 7.86547 57.6189 8.55479 58.5095 9.89487C59.4204 11.2154 59.8475 13.1553 59.7907 15.7147ZM57.2587 14.8784C57.2968 13.1588 57.0946 11.904 56.652 11.114C56.2094 10.324 55.4982 9.91811 54.5184 9.89638C53.6387 9.87687 52.94 10.2615 52.4223 11.0502C51.9052 11.8189 51.5862 13.1222 51.4654 14.9599L57.254 15.0883L57.2587 14.8784ZM69.7436 8.1635C71.2833 8.19765 72.4372 8.93341 73.2056 10.3708C73.9743 11.7882 74.3292 13.8266 74.2702 16.4859C74.213 19.0653 73.7281 21.085 72.8156 22.5451C71.9034 23.9853 70.6275 24.6872 68.9879 24.6508C67.6283 24.6207 66.5214 24.016 65.6673 22.8367L65.5031 30.2449L62.8564 30.5163L63.3479 8.35176L65.6573 8.40297L65.7607 10.5058C66.7964 8.90835 68.124 8.12759 69.7436 8.1635ZM68.466 22.4787C69.4057 22.4995 70.1262 22.0354 70.6274 21.0863C71.149 20.1176 71.4335 18.5635 71.4809 16.4241C71.5293 14.2446 71.3539 12.6803 70.9548 11.7312C70.5562 10.7622 69.907 10.2676 69.0073 10.2477C67.8675 10.2224 66.8307 10.9696 65.8968 12.4893L65.7172 20.5873C66.45 21.8238 67.3662 22.4543 68.466 22.4787ZM88.0497 24.7134L85.5003 24.6569L85.6652 17.2187C85.7136 15.0393 85.9232 13.2535 86.2942 11.8613L80.5815 24.5478L77.6422 24.4826L77.9927 8.67652L80.5421 8.73305L80.3778 16.1412C80.3304 18.2807 80.131 20.0567 79.7796 21.4693L85.4309 8.84146L88.4002 8.90731L88.0497 24.7134ZM12.6859 41.9068C13.4857 41.9246 14.2027 42.0705 14.8368 42.3446C15.4708 42.6187 16.0811 43.0624 16.6677 43.6755L15.4334 45.2085C14.9819 44.8184 14.5383 44.5285 14.1024 44.3388C13.6865 44.1495 13.2286 44.0494 12.7287 44.0383C10.6092 43.9913 9.5038 46.0273 9.41246 50.1463C9.36501 52.2857 9.60103 53.8214 10.1205 54.7531C10.64 55.6848 11.4096 56.162 12.4293 56.1846C12.9292 56.1957 13.3811 56.1157 13.785 55.9446C14.2089 55.774 14.675 55.5043 15.1833 55.1354L16.3777 56.7523C15.1523 57.8854 13.8098 58.4358 12.3501 58.4034C10.4706 58.3617 9.02601 57.6495 8.01642 56.2668C7.00683 54.8841 6.53196 52.8431 6.59182 50.1437C6.65035 47.5044 7.22567 45.4666 8.31778 44.0305C9.41033 42.5744 10.8664 41.8665 12.6859 41.9068ZM28.3835 42.585L28.0357 44.7378L24.0467 44.6494L23.744 58.296L21.1047 58.2375L21.4073 44.5908L17.2383 44.4984L17.2862 42.3389L28.3835 42.585ZM36.9687 42.4453C38.5083 42.4794 39.6623 43.2152 40.4306 44.6526C41.1994 46.07 41.5543 48.1084 41.4953 50.7677C41.4381 53.3471 40.9532 55.3668 40.0406 56.8269C39.1285 58.2671 37.8526 58.969 36.213 58.9326C34.8533 58.9025 33.7465 58.2978 32.8924 57.1185L32.7281 64.5267L30.0815 64.7981L30.573 42.6336L32.8824 42.6848L32.9858 44.7876C34.0215 43.1901 35.3491 42.4094 36.9687 42.4453ZM35.691 56.7605C36.6308 56.7813 37.3513 56.3172 37.8524 55.3681C38.374 54.3994 38.6586 52.8453 38.706 50.7059C38.7543 48.5264 38.579 46.9621 38.1799 46.013C37.7813 45.044 37.1321 44.5494 36.2323 44.5295C35.0926 44.5042 34.0558 45.2514 33.1219 46.7711L32.9423 54.8691C33.6751 56.1056 34.5913 56.7361 35.691 56.7605ZM53.7666 55.601C53.7542 56.1608 53.8249 56.5825 53.9787 56.866C54.1329 57.1294 54.3881 57.3452 54.7445 57.5131L54.1341 59.33C53.3969 59.1936 52.8122 58.9506 52.3798 58.6009C51.9679 58.2317 51.6797 57.6952 51.5153 56.9914C50.6218 58.4919 49.3452 59.2238 47.6856 59.187C46.386 59.1582 45.3558 58.7052 44.595 57.8282C43.8547 56.9315 43.5005 55.7634 43.5324 54.3237C43.5697 52.6442 44.1179 51.376 45.1772 50.5193C46.2369 49.6426 47.7565 49.2261 49.736 49.27L51.2956 49.3046L51.3276 47.865C51.3506 46.8252 51.1575 46.0608 50.7483 45.5716C50.359 45.0828 49.7345 44.8289 48.8747 44.8098C47.8549 44.7872 46.6592 45.0308 45.2876 45.5405L44.669 43.6663C46.3041 43.0024 47.8315 42.6862 49.2512 42.7177C50.8708 42.7536 52.0607 43.2201 52.821 44.1172C53.6018 44.9947 53.9746 46.2233 53.9396 47.8029L53.7666 55.601ZM48.2694 57.2195C49.5091 57.247 50.4775 56.4282 51.1746 54.7633L51.2564 51.0742L49.9967 51.0463C48.737 51.0183 47.8013 51.2676 47.1894 51.7942C46.5976 52.3212 46.2893 53.1446 46.2644 54.2643C46.2432 55.2241 46.4069 55.9579 46.7558 56.4657C47.105 56.9536 47.6096 57.2048 48.2694 57.2195ZM65.7244 59.227L65.88 52.2087L60.9012 52.0983L60.7456 59.1165L58.1062 59.058L58.4567 43.2519L61.0961 43.3104L60.9484 49.9688L65.9272 50.0792L66.0749 43.4208L68.7142 43.4794L68.3637 59.2855L65.7244 59.227ZM78.4777 59.5998C77.9374 61.4083 77.1657 62.8315 76.1624 63.8695C75.1592 64.9075 73.7851 65.5272 72.0402 65.7286L71.7848 63.7124C73.0507 63.4604 73.9807 63.0209 74.5748 62.3939C75.1688 61.767 75.6806 60.7881 76.1102 59.4573L75.1205 59.4353L71.212 43.5348L73.9114 43.5946L76.9026 57.5544L80.4798 43.7403L83.1491 43.7995L78.4777 59.5998Z" fill="black"/>
</svg>
