<svg width="88" height="60" viewBox="0 0 88 60" fill="none" xmlns="http://www.w3.org/2000/svg">
<path d="M8.16728 11.9356C9.56817 12.2112 10.6599 12.7377 11.4423 13.5152C12.2248 14.2727 12.6185 15.4314 12.6235 16.9914C12.6297 18.9314 11.9943 20.3935 10.7175 21.3775C9.4606 22.3616 7.72218 22.8571 5.50219 22.8642L0.882213 22.879L0.816163 2.20908L4.74614 2.19652C7.02613 2.18923 8.77756 2.63364 10.0004 3.52973C11.2233 4.42583 11.8374 5.71388 11.8428 7.39387C11.8466 8.57386 11.5197 9.54491 10.8621 10.307C10.2245 11.0691 9.32625 11.6119 8.16728 11.9356ZM3.55305 4.36034L3.57424 10.9903L5.34423 10.9847C6.58422 10.9807 7.51332 10.6977 8.13153 10.1357C8.74967 9.55376 9.05699 8.71278 9.05347 7.61278C9.0497 6.43279 8.71702 5.59385 8.05543 5.09596C7.41383 4.59801 6.40304 4.35123 5.02304 4.35564L3.55305 4.36034ZM5.49519 20.6742C6.89518 20.6697 7.95432 20.3964 8.67259 19.8541C9.41079 19.2917 9.77776 18.3405 9.77347 17.0005C9.76907 15.6205 9.4159 14.6317 8.71399 14.0339C8.03201 13.4161 6.98103 13.1094 5.56103 13.114L3.58104 13.1203L3.6052 20.6803L5.49519 20.6742ZM19.4473 12.1396C21.5473 12.1329 23.0587 12.5881 23.9817 13.5051C24.9246 14.4221 25.3988 15.7206 25.4041 17.4006C25.4099 19.2006 24.9042 20.5522 23.8871 21.4555C22.89 22.3586 21.5814 22.8128 19.9614 22.818L15.8214 22.8312L15.7709 7.02132L18.4109 7.01288L18.4273 12.1429L19.4473 12.1396ZM27.0809 6.98517L29.7208 6.97674L29.7714 22.7867L27.1314 22.7951L27.0809 6.98517ZM19.6848 20.7489C20.6848 20.7457 21.424 20.4933 21.9024 19.9918C22.4008 19.4902 22.648 18.6294 22.6441 17.4094C22.6406 16.2894 22.4079 15.4702 21.9463 14.9516C21.4846 14.4331 20.6938 14.1756 19.5738 14.1792L18.4338 14.1828L18.4548 20.7528L19.6848 20.7489ZM40.0839 7.96363C41.5439 7.95896 42.7159 8.58522 43.5999 9.8424C44.5039 11.0795 44.9596 12.8681 44.9671 15.2081C44.9756 17.888 44.462 19.8797 43.4262 21.183C42.4102 22.4663 40.9923 23.1108 39.1723 23.1166C35.2723 23.1291 33.3127 20.1153 33.2934 14.0754C33.2858 11.6954 33.4297 9.7849 33.7251 8.34395C34.0204 6.883 34.5267 5.71138 35.2439 4.82908C35.961 3.92678 36.9886 3.1735 38.3266 2.56922C39.3452 2.10596 40.114 1.7435 40.6332 1.48184C41.1523 1.20018 41.7212 0.86836 42.34 0.486381L43.5156 2.22263C42.6376 2.86544 41.32 3.60966 39.5627 4.45528C38.704 4.85802 38.0453 5.28013 37.5867 5.7216C37.1281 6.14306 36.76 6.74424 36.4825 7.52514C36.225 8.30596 36.0484 9.38653 35.9528 10.7668C36.8869 8.90385 38.2639 7.96944 40.0839 7.96363ZM39.1655 20.9866C39.8055 20.9846 40.3351 20.8429 40.7542 20.5616C41.1933 20.2801 41.5415 19.729 41.7989 18.9082C42.0562 18.0674 42.1824 16.867 42.1774 15.307C42.1712 13.387 41.9469 12.0377 41.5044 11.2591C41.0619 10.4805 40.4007 10.0926 39.5207 10.0954C38.8207 10.0977 38.1715 10.3598 37.5732 10.8817C36.9749 11.4036 36.4774 12.1852 36.0807 13.2264L36.0864 15.0264C36.0992 19.0064 37.1255 20.9932 39.1655 20.9866ZM58.7198 14.3241C58.7212 14.7641 58.7027 15.2242 58.6642 15.7043L50.3842 15.7308C50.4703 17.6305 50.7846 18.9695 51.3271 19.7478C51.8896 20.526 52.6808 20.9134 53.7008 20.9102C54.3608 20.9081 54.9505 20.8062 55.4698 20.6045C55.9891 20.3829 56.528 20.0411 57.0866 19.5794L58.2616 21.1656C56.9457 22.4298 55.3977 23.0648 53.6177 23.0705C51.7377 23.0765 50.2755 22.3911 49.2311 21.0145C48.1866 19.6178 47.6602 17.6095 47.6519 14.9895C47.6435 12.3695 48.1269 10.3179 49.1022 8.83482C50.0974 7.33163 51.495 6.57716 53.295 6.57141C55.035 6.56585 56.3671 7.22159 57.2913 8.53865C58.2354 9.83564 58.7116 11.7641 58.7198 14.3241ZM56.1673 13.5523C56.1618 11.8323 55.9278 10.583 55.4653 9.80449C55.0028 9.02596 54.2816 8.63827 53.3016 8.6414C52.4216 8.64421 51.7329 9.04641 51.2354 9.84801C50.7379 10.6296 50.4521 11.9405 50.378 13.7808L56.168 13.7623L56.1673 13.5523ZM68.478 6.52289C70.0179 6.51797 71.1902 7.22423 71.9947 8.64166C72.7992 10.0391 73.2057 12.0678 73.2142 14.7278C73.2224 17.3078 72.7889 19.3392 71.9137 20.822C71.0383 22.2848 69.7807 23.0188 68.1407 23.0241C66.7807 23.0284 65.6588 22.452 64.7751 21.2948L64.7988 28.7048L62.1599 29.0432L62.089 6.87331L64.399 6.86593L64.5557 8.96544C65.5506 7.34225 66.858 6.52807 68.478 6.52289ZM67.5638 20.8659C68.5038 20.8629 69.2122 20.3806 69.6892 19.4191C70.186 18.4375 70.431 16.8767 70.4242 14.7367C70.4172 12.5567 70.2023 10.9974 69.7793 10.0588C69.3562 9.1001 68.6947 8.62221 67.7947 8.62508C66.6547 8.62873 65.6371 9.40198 64.7421 10.9449L64.7679 19.0448C65.5318 20.2624 66.4638 20.8694 67.5638 20.8659ZM87.1979 22.6032L84.6479 22.6113L84.6241 15.1713C84.6171 12.9914 84.7814 11.2008 85.1169 9.79974L79.7279 22.627L76.7879 22.6364L76.7374 6.8265L79.2874 6.81835L79.3111 14.2283C79.3179 16.3683 79.1636 18.1488 78.8481 19.5698L84.1774 6.80273L87.1473 6.79324L87.1979 22.6032ZM31.6295 50.6509L31.6506 57.2508L29.6706 57.2572L29.2663 52.7884L21.1363 52.8144L20.7606 57.2856L18.7806 57.292L18.7595 50.692L19.6595 50.6891C20.0385 50.3679 20.3374 50.0169 20.5562 49.6362C20.7749 49.2355 20.9628 48.5849 21.1199 47.6844C21.2971 46.7839 21.4329 45.4934 21.5276 43.8131L21.8958 37.0019L30.2658 36.9752L30.3095 50.6551L31.6295 50.6509ZM27.6926 39.1134L24.2426 39.1244L24.0165 43.4752C23.9215 45.0355 23.7954 46.2659 23.6383 47.1664C23.4811 48.0469 23.2633 48.7476 22.985 49.2685C22.7066 49.7694 22.3181 50.2406 21.8195 50.6822L27.7295 50.6633L27.6926 39.1134ZM43.9815 49.3814C43.9833 49.9414 44.0646 50.3611 44.2255 50.6406C44.3864 50.9001 44.647 51.1093 45.0075 51.2681L44.4434 53.0999C43.703 52.9823 43.1123 52.7542 42.6712 52.4156C42.25 52.0569 41.9483 51.5279 41.7661 50.8285C40.911 52.3512 39.6534 53.1152 37.9934 53.1205C36.6934 53.1247 35.6521 52.698 34.8693 51.8405C34.1065 50.963 33.7228 49.8042 33.7182 48.3642C33.7128 46.6842 34.2287 45.4025 35.2659 44.5192C36.303 43.6159 37.8116 43.1611 39.7916 43.1547L41.3516 43.1498L41.347 41.7098C41.3436 40.6698 41.1312 39.9104 40.7097 39.4318C40.3082 38.9531 39.6774 38.7151 38.8174 38.7178C37.7974 38.7211 36.6083 38.9949 35.25 39.5392L34.5841 37.6814C36.2018 36.9762 37.7207 36.6213 39.1407 36.6168C40.7607 36.6116 41.9621 37.0478 42.7449 37.9253C43.5476 38.7827 43.9515 40.0014 43.9566 41.5814L43.9815 49.3814ZM38.5271 51.1388C39.7671 51.1349 40.7144 50.2918 41.369 48.6097L41.3572 44.9198L40.0972 44.9238C38.8372 44.9278 37.9081 45.2008 37.3098 45.7427C36.7316 46.2845 36.4442 47.1155 36.4478 48.2355C36.4509 49.1955 36.6332 49.9249 36.9948 50.4237C37.3563 50.9026 37.8671 51.1409 38.5271 51.1388ZM56.8309 36.8903L56.5378 39.0512L52.5478 39.064L52.5914 52.7139L49.9514 52.7223L49.9078 39.0724L45.7378 39.0857L45.7309 36.9257L56.8309 36.8903ZM64.8016 52.7649C64.3075 54.5865 63.5721 56.0288 62.5954 57.0919C61.6188 58.1551 60.2609 58.8094 58.5217 59.055L58.2153 57.0459C59.4744 56.7619 60.3929 56.299 60.9709 55.6571C61.5488 55.0153 62.0356 54.0237 62.4314 52.6825L61.4414 52.6856L57.1309 36.8893L59.8309 36.8807L63.1752 50.7601L66.4008 36.8597L69.0708 36.8512L64.8016 52.7649Z" fill="black"/>
</svg>
