<svg width="172" height="94" viewBox="0 0 172 94" fill="none" xmlns="http://www.w3.org/2000/svg">
<path d="M9.9042 21.5819L9.87314 11.862L3.21317 11.8833L3.24423 21.6032L0.514248 21.6119L0.448199 0.942029L3.17819 0.933305L3.20599 9.63326L9.86595 9.61198L9.83815 0.912024L12.5681 0.9033L12.6342 21.5732L9.9042 21.5819ZM26.2033 18.1698C26.2051 18.7298 26.2864 19.1496 26.4473 19.429C26.6082 19.6885 26.8688 19.8977 27.2293 20.0566L26.6652 21.8884C25.9248 21.7707 25.3341 21.5426 24.893 21.204C24.4718 20.8454 24.1702 20.3163 23.9879 19.6169C23.1328 21.1396 21.8752 21.9037 20.2152 21.909C18.9152 21.9131 17.8739 21.4865 17.0911 20.6289C16.3283 19.7514 15.9446 18.5926 15.94 17.1526C15.9346 15.4726 16.4505 14.191 17.4877 13.3076C18.5248 12.4043 20.0334 11.9495 22.0134 11.9432L23.5734 11.9382L23.5688 10.4982C23.5655 9.4582 23.353 8.69888 22.9315 8.22022C22.53 7.7415 21.8992 7.50352 21.0392 7.50627C20.0192 7.50952 18.8301 7.78333 17.4718 8.32767L16.8059 6.46979C18.4236 5.76461 19.9425 5.40976 21.3625 5.40522C22.9825 5.40004 24.1839 5.83621 24.9667 6.71371C25.7694 7.57115 26.1733 8.78987 26.1784 10.3699L26.2033 18.1698ZM20.7489 19.9273C21.9889 19.9233 22.9362 19.0803 23.5908 17.3982L23.579 13.7082L22.319 13.7122C21.059 13.7162 20.1299 13.9892 19.5316 14.5311C18.9534 15.073 18.666 15.9039 18.6696 17.0239C18.6727 17.9839 18.855 18.7133 19.2166 19.2122C19.5781 19.691 20.0889 19.9294 20.7489 19.9273ZM45.1886 5.65909L42.0623 13.0791L45.6591 21.4677L43.0491 21.476L39.936 14.2559L38.316 14.2611L38.3391 21.4911L35.9091 21.4988L35.886 14.2689L34.2961 14.2739L31.1992 21.5139L28.5892 21.5222L32.1623 13.1108L28.9587 5.71095L31.4186 5.70309L34.2594 12.204L35.8794 12.1989L35.8586 5.6889L38.2886 5.68114L38.3094 12.1911L39.9594 12.1858L42.7586 5.66685L45.1886 5.65909ZM61.2321 21.4179L58.7121 21.426L58.1775 13.7476C58.094 12.6279 58.0503 11.468 58.0464 10.268C58.0435 9.36803 58.0514 8.688 58.0699 8.22794L55.3164 19.6668L52.9465 19.6744L50.2701 8.31286C50.2918 8.8328 50.3042 9.57276 50.3072 10.5328C50.3104 11.5328 50.2838 12.6028 50.2275 13.743L49.8321 21.4543L47.3121 21.4624L48.4016 5.64882L51.6716 5.63837L54.138 17.0306L56.7116 5.62227L60.0416 5.61163L61.2321 21.4179ZM75.3456 21.3728L72.7956 21.381L72.7718 13.941C72.7649 11.761 72.9291 9.97047 73.2647 8.56939L67.8756 21.3967L64.9356 21.4061L64.8851 5.59615L67.4351 5.588L67.4588 12.998C67.4656 15.138 67.3113 16.9185 66.9959 18.3395L72.3251 5.57238L75.2951 5.56289L75.3456 21.3728ZM112.72 21.2534L112.676 7.60345L107.756 7.61917L107.8 21.2691L105.16 21.2775L105.11 5.46762L115.309 5.43502L115.36 21.2449L112.72 21.2534ZM124.798 5.0747C126.678 5.06869 128.13 5.76405 129.155 7.16079C130.199 8.53746 130.726 10.5758 130.734 13.2758C130.743 15.8158 130.219 17.8374 129.164 19.3408C128.129 20.8241 126.681 21.5688 124.821 21.5747C122.961 21.5807 121.509 20.8553 120.464 19.3986C119.419 17.942 118.893 15.9236 118.885 13.3436C118.876 10.6837 119.39 8.642 120.425 7.21868C121.461 5.79537 122.918 5.08071 124.798 5.0747ZM124.805 7.20469C123.745 7.20808 122.957 7.6906 122.44 8.65225C121.923 9.59391 121.668 11.1547 121.675 13.3347C121.682 15.4947 121.946 17.0539 122.47 18.0122C122.993 18.9705 123.774 19.448 124.814 19.4447C125.874 19.4413 126.663 18.9588 127.18 17.9972C127.696 17.0355 127.951 15.4647 127.944 13.2847C127.938 11.1247 127.673 9.57554 127.15 8.6372C126.627 7.67887 125.845 7.20137 124.805 7.20469ZM144.72 21.1511L142.17 21.1593L142.146 13.7193C142.14 11.5393 142.304 9.74879 142.639 8.34771L137.25 21.175L134.31 21.1844L134.26 5.37447L136.81 5.36632L136.833 12.7763C136.84 14.9163 136.686 16.6968 136.371 18.1178L141.7 5.35069L144.67 5.3412L144.72 21.1511ZM154.124 4.98099C154.924 4.97843 155.644 5.10613 156.285 5.36409C156.926 5.62204 157.547 6.05006 158.149 6.64814L156.954 8.21196C156.493 7.83344 156.042 7.55488 155.601 7.37628C155.181 7.19763 154.72 7.1091 154.22 7.11069C152.1 7.11747 151.047 9.18084 151.06 13.3008C151.067 15.4408 151.342 16.9699 151.885 17.8882C152.428 18.8065 153.209 19.264 154.229 19.2607C154.729 19.2591 155.179 19.1677 155.578 18.9864C155.998 18.8051 156.457 18.5236 156.956 18.142L158.191 19.7281C156.994 20.8919 155.666 21.4761 154.206 21.4808C152.326 21.4868 150.864 20.8115 149.82 19.4548C148.775 18.0981 148.249 16.0698 148.24 13.3698C148.232 10.7298 148.755 8.67816 149.811 7.21478C150.866 5.7314 152.304 4.98681 154.124 4.98099ZM170.943 5.25725L167.127 12.5895L171.444 21.0657L168.654 21.0746L165 13.7663L163.44 13.7713L163.464 21.0912L160.824 21.0997L160.773 5.28974L163.413 5.28131L163.434 11.7013L165.054 11.6961L168.393 5.2654L170.943 5.25725ZM17.9804 57.5563L15.4305 57.5644L15.4067 50.1245C15.3997 47.9445 15.564 46.154 15.8995 44.7529L10.5105 57.5802L7.5705 57.5896L7.51998 41.7796L10.07 41.7715L10.0936 49.1815C10.1005 51.3214 9.94617 53.1019 9.63071 54.523L14.9599 41.7559L17.9299 41.7464L17.9804 57.5563ZM41.9527 57.4797L39.4327 57.4877L38.8981 49.8094C38.8146 48.6897 38.7709 47.5298 38.767 46.3298C38.7641 45.4298 38.772 44.7498 38.7905 44.2897L36.037 55.7286L33.6671 55.7362L30.9907 44.3747C31.0124 44.8946 31.0248 45.6346 31.0278 46.5945C31.031 47.5945 31.0044 48.6646 30.9481 49.8048L30.5527 57.5161L28.0327 57.5242L29.1222 41.7106L32.3922 41.7002L34.8586 53.0923L37.4322 41.6841L40.7622 41.6734L41.9527 57.4797ZM49.2821 46.7762C51.3821 46.7695 52.8935 47.2247 53.8165 48.1417C54.7594 49.0587 55.2336 50.3572 55.2389 52.0372C55.2447 53.8372 54.739 55.1888 53.7219 56.0921C52.7248 56.9953 51.4162 57.4495 49.7962 57.4546L45.6562 57.4679L45.6057 41.6579L48.2457 41.6495L48.2621 46.7795L49.2821 46.7762ZM56.9157 41.6218L59.5557 41.6134L59.6062 57.4233L56.9662 57.4317L56.9157 41.6218ZM49.5196 55.3855C50.5196 55.3823 51.2588 55.1299 51.7372 54.6284C52.2356 54.1268 52.4829 53.266 52.479 52.046C52.4754 50.926 52.2428 50.1068 51.7811 49.5882C51.3194 49.0697 50.5286 48.8122 49.4086 48.8158L48.2686 48.8195L48.2896 55.3894L49.5196 55.3855ZM77.9133 57.3648L77.8697 43.7149L72.9498 43.7306L72.9934 57.3805L70.3534 57.3889L70.3029 41.579L80.5028 41.5464L80.5533 57.3563L77.9133 57.3648ZM89.9916 41.1861C91.8715 41.1801 93.3238 41.8755 94.3482 43.2722C95.3926 44.6489 95.9192 46.6872 95.9278 49.3872C95.9359 51.9272 95.4124 53.9489 94.3572 55.4522C93.3219 56.9355 91.8743 57.6802 90.0143 57.6861C88.1543 57.6921 86.702 56.9667 85.6573 55.51C84.6126 54.0534 84.0862 52.035 84.0779 49.455C84.0694 46.7951 84.5829 44.7534 85.6184 43.3301C86.6538 41.9068 88.1116 41.1921 89.9916 41.1861ZM89.9984 43.3161C88.9384 43.3195 88.1499 43.802 87.633 44.7637C87.116 45.7053 86.861 47.2661 86.8679 49.4461C86.8748 51.6061 87.1398 53.1653 87.6629 54.1236C88.1859 55.0819 88.9675 55.5595 90.0075 55.5561C91.0675 55.5527 91.8559 55.0702 92.3729 54.1086C92.8898 53.1469 93.1448 51.5761 93.1378 49.3961C93.1309 47.2361 92.8659 45.6869 92.3429 44.7486C91.8199 43.7903 91.0384 43.3128 89.9984 43.3161ZM109.623 41.4534L105.806 48.7856L110.124 57.2619L107.334 57.2708L103.68 49.9624L102.12 49.9674L102.144 57.2874L99.5036 57.2958L99.4531 41.4859L102.093 41.4774L102.114 47.8974L103.734 47.8922L107.073 41.4615L109.623 41.4534ZM121.123 53.8667C121.124 54.4267 121.206 54.8464 121.367 55.1259C121.527 55.3854 121.788 55.5946 122.149 55.7534L121.584 57.5852C120.844 57.4676 120.253 57.2395 119.812 56.9009C119.391 56.5422 119.089 56.0132 118.907 55.3138C118.052 56.8365 116.794 57.6005 115.134 57.6058C113.834 57.61 112.793 57.1833 112.01 56.3258C111.248 55.4483 110.864 54.2895 110.859 52.8495C110.854 51.1695 111.37 49.8878 112.407 49.0045C113.444 48.1012 114.953 47.6464 116.933 47.6401L118.493 47.6351L118.488 46.1951C118.485 45.1551 118.272 44.3958 117.851 43.9171C117.449 43.4384 116.818 43.2004 115.958 43.2031C114.938 43.2064 113.749 43.4802 112.391 44.0245L111.725 42.1667C113.343 41.4615 114.862 41.1066 116.282 41.1021C117.902 41.0969 119.103 41.5331 119.886 42.4106C120.689 43.268 121.093 44.4867 121.098 46.0667L121.123 53.8667ZM115.668 55.6241C116.908 55.6202 117.855 54.7771 118.51 53.095L118.498 49.4051L117.238 49.4091C115.978 49.4131 115.049 49.6861 114.451 50.228C113.873 50.7698 113.585 51.6008 113.589 52.7208C113.592 53.6808 113.774 54.4102 114.136 54.909C114.497 55.3879 115.008 55.6262 115.668 55.6241ZM140.108 41.356L136.982 48.776L140.578 57.1645L137.968 57.1729L134.855 49.9528L133.235 49.958L133.258 57.1879L130.828 57.1957L130.805 49.9657L129.215 49.9708L126.118 57.2107L123.508 57.2191L127.082 48.8076L123.878 41.4078L126.338 41.4L129.179 47.9009L130.799 47.8957L130.778 41.3858L133.208 41.378L133.229 47.888L134.879 47.8827L137.678 41.3637L140.108 41.356ZM152.861 48.7553C152.862 49.1952 152.844 49.6553 152.805 50.1354L144.525 50.1619C144.611 52.0616 144.926 53.4006 145.468 54.1789C146.031 54.9571 146.822 55.3446 147.842 55.3413C148.502 55.3392 149.092 55.2373 149.611 55.0357C150.13 54.814 150.669 54.4723 151.228 54.0105L152.403 55.5968C151.087 56.861 149.539 57.4959 147.759 57.5016C145.879 57.5076 144.417 56.8223 143.372 55.4456C142.328 54.0489 141.801 52.0406 141.793 49.4206C141.785 46.8006 142.268 44.7491 143.243 43.266C144.239 41.7628 145.636 41.0083 147.436 41.0025C149.176 40.997 150.508 41.6527 151.432 42.9698C152.377 44.2668 152.853 46.1953 152.861 48.7553ZM150.308 47.9834C150.303 46.2634 150.069 45.0142 149.606 44.2356C149.144 43.4571 148.423 43.0694 147.443 43.0725C146.563 43.0753 145.874 43.4776 145.377 44.2791C144.879 45.0607 144.593 46.3717 144.519 48.2119L150.309 48.1934L150.308 47.9834ZM169.511 57.0721L166.991 57.0801L166.456 49.4018C166.373 48.2821 166.329 47.1222 166.325 45.9222C166.322 45.0222 166.33 44.3422 166.348 43.8821L163.595 55.321L161.225 55.3286L158.549 43.9671C158.57 44.487 158.583 45.2269 158.586 46.1869C158.589 47.1869 158.562 48.257 158.506 49.3972L158.111 57.1085L155.591 57.1166L156.68 41.303L159.95 41.2926L162.417 52.6847L164.99 41.2765L168.32 41.2658L169.511 57.0721ZM51.1007 77.6406L47.2841 84.9728L51.6012 93.449L48.8112 93.458L45.1579 86.1496L43.5979 86.1546L43.6213 93.4745L40.9813 93.483L40.9307 77.6731L43.5707 77.6646L43.5912 84.0846L45.2112 84.0794L48.5507 77.6487L51.1007 77.6406ZM63.6298 77.6005L63.6804 93.4105L61.0404 93.4189L60.9968 79.769L57.3068 79.7807L57.3369 79.8107L56.8786 86.6222C56.7643 88.3825 56.5984 89.6831 56.3811 90.5238C56.1838 91.3644 55.8459 92.0155 55.3673 92.477C54.9088 92.9385 54.1702 93.3808 53.1516 93.8041L52.485 91.7362C53.0042 91.4946 53.3833 91.2033 53.6222 90.8626C53.861 90.5018 54.0295 90.0213 54.1276 89.421C54.2256 88.8006 54.3123 87.7804 54.3878 86.3601L54.9299 77.6283L63.6298 77.6005ZM78.4614 93.3632L75.9114 93.3714L75.8876 85.9314C75.8807 83.7514 76.0449 81.9609 76.3805 80.5598L70.9914 93.3871L68.0514 93.3965L68.0009 77.5866L70.5509 77.5784L70.5746 84.9884C70.5814 87.1284 70.4271 88.9089 70.1117 90.3299L75.4409 77.5628L78.4109 77.5533L78.4614 93.3632ZM90.4662 93.3249L90.4438 86.3049L85.4638 86.3208L85.4863 93.3408L82.8463 93.3492L82.7958 77.5393L85.4358 77.5309L85.457 84.1908L90.437 84.1749L90.4157 77.5149L93.0557 77.5065L93.1062 93.3164L90.4662 93.3249ZM107.905 93.2691L105.355 93.2773L105.331 85.8373C105.324 83.6573 105.488 81.8668 105.824 80.4657L100.435 93.293L97.4946 93.3024L97.4441 77.4925L99.9941 77.4843L100.018 84.8943C100.025 87.0343 99.8703 88.8148 99.5549 90.2358L104.884 77.4687L107.854 77.4592L107.905 93.2691ZM122.409 77.4127L118.592 84.7449L122.909 93.2212L120.119 93.2301L116.466 85.9217L114.906 85.9267L114.929 93.2467L112.289 93.2551L112.239 77.4452L114.879 77.4368L114.899 83.8567L116.519 83.8516L119.859 77.4209L122.409 77.4127ZM135.649 93.1805L133.099 93.1886L133.075 85.7487C133.068 83.5687 133.232 81.7781 133.568 80.3771L128.179 93.2044L125.239 93.2137L125.188 77.4038L127.738 77.3957L127.762 84.8056C127.769 86.9456 127.614 88.7261 127.299 90.1471L132.628 77.3801L135.598 77.3706L135.649 93.1805Z" fill="black"/>
</svg>
